<svg width="53" height="53" viewBox="0 0 53 53" fill="none" xmlns="http://www.w3.org/2000/svg">
<circle cx="26.5" cy="26.5" r="26.5" fill="#EDEDED"/>
<path fill-rule="evenodd" clip-rule="evenodd" d="M16.2734 16.0107C14.6174 17.6664 13.197 19.1802 13.1167 19.3746C13.0161 19.6185 12.9825 22.627 13.0084 29.0951L13.0458 38.4622L13.4178 39.0972C13.8793 39.8851 14.6028 40.4955 15.3966 40.767C16.3054 41.0777 32.3842 41.0777 33.293 40.767C34.0868 40.4955 34.8103 39.8851 35.2718 39.0972L35.6438 38.4622L35.6835 34.4561L35.7233 30.4501L34.2965 31.8735L32.8698 33.297V35.3402C32.8698 36.9695 32.8271 37.4444 32.6591 37.685L32.4485 37.9869H24.3537C16.9901 37.9869 16.2422 37.9667 16.0731 37.7624C15.9209 37.5783 15.8875 36.2393 15.8875 30.3275V23.117L18.3909 23.0453C21.0796 22.9681 21.4389 22.8876 22.2839 22.1726C22.5272 21.9668 22.8926 21.5144 23.0958 21.1676C23.4535 20.5569 23.4667 20.4621 23.5103 18.1943L23.5552 15.8518H27.9159C31.4653 15.8518 32.3257 15.8876 32.5395 16.0442C32.7752 16.2171 32.809 16.4604 32.8698 18.4238L32.9374 20.611L34.339 19.1989L35.7405 17.7869L35.688 16.6496C35.6283 15.3569 35.3771 14.7105 34.6511 13.982C33.6526 12.9798 33.8819 13.0064 26.1785 13.003L19.2842 13L16.2734 16.0107ZM20.6678 17.8005C20.6366 19.0825 20.5692 19.679 20.4379 19.8374C20.2814 20.0263 19.9519 20.0615 18.3421 20.0615H16.4321L18.4585 18.0245C19.573 16.9042 20.536 15.9876 20.5986 15.9876C20.6611 15.9876 20.6923 16.8033 20.6678 17.8005ZM34.0202 23.7278L28.203 29.5669L29.2514 30.6189L30.2997 31.6709L36.1498 25.7999L42 19.929L40.9904 18.9089C40.4351 18.3477 39.9485 17.8887 39.9091 17.8887C39.8697 17.8887 37.2197 20.5163 34.0202 23.7278ZM18.9321 27.5983V29.0242H20.353H21.7738V27.5983V26.1724H20.353H18.9321V27.5983ZM25.3265 33.1238C25.0942 34.1156 24.9227 34.9456 24.9455 34.9684C24.9682 34.9912 25.7871 34.8088 26.7652 34.5629L28.5435 34.1157L27.1463 32.7182L25.749 31.3207L25.3265 33.1238ZM18.9321 33.5735V34.9993H20.353H21.7738V33.5735V32.1476H20.353H18.9321V33.5735Z" fill="#00A6CA"/>
</svg>
