<svg width="54" height="53" viewBox="0 0 54 53" fill="none" xmlns="http://www.w3.org/2000/svg">
<ellipse cx="26.801" cy="26.5" rx="26.6721" ry="26.5" fill="#EDEDED"/>
<path fill-rule="evenodd" clip-rule="evenodd" d="M34.6629 11.1676C34.236 11.3482 29.9544 15.3978 29.9544 15.6208C29.9544 15.691 30.3611 16.1423 30.8581 16.6239L31.7618 17.4995L33.086 16.2118L34.4102 14.9241V24.8777V34.8313H35.6747H36.9392V24.9638C36.9392 19.5367 36.9809 15.0963 37.0319 15.0963C37.0828 15.0963 37.6642 15.6248 38.3239 16.2708L39.5235 17.4454L40.4601 16.5371L41.3967 15.6289L39.2583 13.5295C37.9552 12.2503 36.9317 11.3442 36.6382 11.2102C36.0622 10.9469 35.2265 10.929 34.6629 11.1676ZM29.1114 27.7244V34.8313H30.3759H31.6404V27.7244V20.6174H30.3759H29.1114V27.7244ZM23.8125 29.6626V34.8313H25.077H26.3415V29.6626V24.4939H25.077H23.8125V29.6626ZM18.5137 31.6596V34.8313H19.7782H21.0427V31.6596V28.4879H19.7782H18.5137V31.6596ZM13.2148 33.5979V34.8313H14.4793H15.7438V33.5979V32.3644H14.4793H13.2148V33.5979ZM13.2148 38.7666V40H25.077H36.9392V38.7666V37.5331H25.077H13.2148V38.7666Z" fill="#00A6CA"/>
</svg>
