<svg width="214" height="213" viewBox="0 0 214 213" fill="none" xmlns="http://www.w3.org/2000/svg">
<path d="M33.3333 5H90V108.889H5V33.3333L33.3333 5Z" stroke="#E7D048" stroke-width="10" stroke-linecap="round" stroke-linejoin="round"/>
<path d="M33.3333 5V33.3333H5" stroke="#E7D048" stroke-width="10" stroke-linecap="round" stroke-linejoin="round"/>
<path d="M23.8867 61.6675H71.1089" stroke="#E7D048" stroke-width="10" stroke-linecap="round" stroke-linejoin="round"/>
<path d="M23.8867 80.5567H71.1089" stroke="#E7D048" stroke-width="10" stroke-linecap="round" stroke-linejoin="round"/>
<path fill-rule="evenodd" clip-rule="evenodd" d="M146.335 45.9083C145.947 46.2124 144.151 49.1669 142.343 52.4743C140.536 55.7813 138.896 58.5488 138.698 58.6242C138.501 58.6996 135.514 57.9363 132.061 56.9281C128.608 55.9199 125.263 55.0951 124.628 55.0951C123.071 55.0951 121.841 56.2602 121.841 57.7337C121.841 58.29 123.119 63.0561 124.68 68.3248L127.519 77.904L129.495 76.8265C130.995 76.0089 131.6 75.496 132.005 74.6998L132.537 73.651L130.96 68.2198C130.093 65.2328 129.438 62.7344 129.505 62.6676C129.572 62.6011 131.827 63.1866 134.517 63.9691C140.023 65.5706 141.375 65.7089 142.302 64.7653C142.641 64.4211 144.048 62.0437 145.43 59.4824C146.812 56.9214 148.005 54.8271 148.082 54.8285C148.159 54.8299 149.408 57.0294 150.859 59.7165C152.309 62.4035 153.751 64.7798 154.061 64.9968C155.018 65.6647 156.607 65.4473 161.656 63.9583C164.329 63.1702 166.574 62.583 166.645 62.654C166.716 62.7247 166.069 65.2167 165.208 68.1917C163.124 75.3878 162.832 74.7065 169.584 78.4062C174.408 81.0499 174.639 81.2138 174.01 81.5477C169.471 83.9571 165.128 86.4279 164.637 86.8801C163.504 87.9237 163.566 88.6951 165.245 94.3625C166.111 97.2866 166.777 99.7205 166.727 99.7711C166.676 99.8215 164.263 99.1714 161.365 98.3266C155.702 96.6755 154.788 96.606 153.742 97.7455C153.428 98.0875 152.06 100.403 150.701 102.89C149.342 105.377 148.155 107.412 148.063 107.412C147.971 107.412 146.745 105.303 145.34 102.727C143.934 100.15 142.547 97.8279 142.257 97.5666C141.21 96.6221 140.082 96.7373 134.692 98.3388C131.856 99.1812 129.495 99.829 129.444 99.7784C129.393 99.7277 130.052 97.2736 130.909 94.3249C132.258 89.6785 132.426 88.8439 132.168 88.0642C132.004 87.5694 131.654 86.9761 131.391 86.7457C130.842 86.264 113.991 77.0121 113.89 77.1362C113.852 77.1813 113.187 78.374 112.411 79.7862L111 82.3542L115.653 84.901C118.212 86.3019 121.523 88.1232 123.01 88.9483L125.715 90.4491L125.329 91.7645C125.116 92.4883 124.244 95.4456 123.391 98.3363C122.539 101.227 121.841 103.957 121.841 104.403C121.841 106.071 123.111 107.412 124.69 107.412C125.015 107.412 128.296 106.531 131.982 105.454C135.667 104.377 138.772 103.595 138.881 103.715C138.99 103.835 140.55 106.625 142.347 109.916C144.144 113.207 145.87 116.118 146.181 116.386C146.948 117.045 149.217 117.045 149.981 116.386C150.292 116.118 152.012 113.207 153.805 109.916C155.597 106.625 157.155 103.837 157.267 103.72C157.379 103.603 160.477 104.385 164.152 105.458C167.827 106.532 171.11 107.41 171.448 107.411C173.044 107.413 174.323 106.083 174.323 104.423C174.323 103.988 173.45 100.695 172.382 97.1041C170.627 91.1982 170.485 90.5428 170.895 90.2317C171.144 90.0425 174.041 88.4296 177.331 86.6475C182.713 83.7331 183.356 83.3081 183.727 82.4243C184.238 81.2041 184.018 79.8625 183.182 79.1131C182.839 78.8053 179.857 77.0836 176.556 75.287C173.255 73.4904 170.529 71.9958 170.498 71.9658C170.466 71.9354 171.314 68.9389 172.382 65.3068C173.449 61.6744 174.323 58.2569 174.323 57.7123C174.323 56.2346 173.083 55.0937 171.483 55.099C170.819 55.1012 167.513 55.9152 164.138 56.9078C160.762 57.9004 157.81 58.7097 157.578 58.7058C157.316 58.7013 155.892 56.3654 153.846 52.5814C152.026 49.217 150.219 46.2149 149.831 45.9099C148.907 45.1859 147.258 45.1853 146.335 45.9083Z" fill="#E7D048"/>
<ellipse cx="141.667" cy="77.7475" rx="3.07076" ry="3.06107" fill="#E7D048"/>
<ellipse cx="152.695" cy="88.7505" rx="3.07076" ry="3.06107" fill="#E7D048"/>
<rect width="27.1129" height="4.2979" transform="matrix(0.771989 -0.635636 0.638024 0.770016 135.826 90.1058)" fill="#E7D048"/>
<path fill-rule="evenodd" clip-rule="evenodd" d="M37.602 130.581C32.1887 132.223 27.7718 136.808 26.1834 142.433C25.8327 143.675 25.7388 145.323 25.65 151.793L25.5425 159.645H28.2614H30.9805L30.9863 152.547C30.9898 148.643 31.1041 144.952 31.2407 144.346C32.2389 139.91 36.1181 136.248 40.6652 135.45C45.8402 134.542 51.1861 137.905 53.1218 143.286C53.5824 144.567 53.6425 145.46 53.7823 153.112C53.9285 161.103 53.9646 161.6 54.4941 162.912C54.8009 163.672 55.1546 164.401 55.28 164.532C56.1252 165.418 55.9984 165.424 36.2538 165.424H17V168.059V170.694L25.1553 170.761L33.3105 170.827L33.4599 174.721C33.5421 176.863 33.7383 179.032 33.8957 179.54C34.3488 181.001 36.0009 183.335 37.2152 184.228C39.3471 185.797 40.4153 186.144 43.1265 186.149C45.4002 186.154 45.7036 186.094 47.1735 185.352C49.895 183.978 51.6965 181.758 52.4289 178.877C53.0713 176.351 53.1951 176.48 50.1388 176.48H47.4683L47.3062 177.365C47.123 178.365 45.9643 179.843 44.9366 180.388C43.1437 181.338 40.4943 180.478 39.4183 178.597C38.874 177.645 38.8291 177.305 38.8291 174.134V170.701H52.8989H66.9683L67.609 170.045C68.451 169.182 68.6654 167.975 68.1557 166.965C67.6301 165.924 66.9291 165.513 65.38 165.34C62.7948 165.052 60.6305 163.496 59.5864 161.175C59.1023 160.099 59.0581 159.468 58.9244 151.73C58.7692 142.743 58.7096 142.307 57.2235 139.291C55.0715 134.923 50.8528 131.456 46.3722 130.373C44.0031 129.801 39.8475 129.899 37.602 130.581Z" fill="#E7D048"/>
<path d="M79.4001 210.477L79.4 210.477C78.036 209.648 77.1565 208.895 76.7421 207.438C76.3543 206.075 76.3862 204.122 76.5695 200.961C77.3295 187.851 82.1076 174.944 90.1209 164.346C100.676 150.387 116 141.174 133.659 138.161M79.4001 210.477L133.659 138.161M79.4001 210.477C79.8181 210.731 80.231 210.936 80.8479 211.09C81.4478 211.24 82.2263 211.339 83.3741 211.406C85.6679 211.541 89.5579 211.559 96.7002 211.559L112.064 211.562L112.625 211.562V211V205.341V199.682V199.121H112.064H100.141H88.8757M79.4001 210.477L88.8757 199.121M133.659 138.161C135.831 137.79 140.513 137.47 144.077 137.441L144.081 137.965L144.077 137.441C155.011 137.355 164.254 139.347 173.442 143.778L178.973 146.445L179.69 146.791L179.124 147.351L175.014 151.41L174.648 151.039L175.014 151.41L170.903 155.469L170.642 155.726L170.302 155.591L165.738 153.783C161.283 152.018 156.663 150.734 152.387 150.071L152.473 149.517L152.387 150.071L150.84 149.831V157.709V166.243V166.804H150.278H144.598H138.917H138.356V166.243V157.709V149.829L136.807 150.066C127.69 151.462 119.051 155.025 111.421 160.538L111.421 160.538L109.692 161.787L115.355 167.443L114.981 167.819L115.355 167.443L121.485 173.566L121.884 173.964L121.485 174.362L117.491 178.34L113.497 182.319L113.101 182.713L112.705 182.32L106.558 176.213L106.932 175.837L106.558 176.213L100.876 170.568L99.6206 172.293L99.6206 172.293C94.0878 179.893 90.6033 188.286 89.1207 197.584L88.8757 199.121M133.659 138.161L88.8757 199.121M139.302 201.34L138.902 201.738L139.302 202.136L143.302 206.121L147.302 210.105L147.698 210.5L148.094 210.105L168.199 190.082C176.799 181.517 181.846 176.543 184.826 173.779C186.321 172.393 187.275 171.584 187.887 171.157C188.158 170.968 188.333 170.875 188.437 170.834C188.747 171.128 189.236 171.743 189.849 172.619C190.515 173.572 191.289 174.777 192.073 176.075C193.645 178.676 195.238 181.614 196.081 183.605L196.081 183.605C197.738 187.516 199.394 193.315 200.075 197.584L200.32 199.121H189.572H178.165H177.603V199.682V205.341V211V211.562L178.165 211.562L193.012 211.559C199.899 211.559 203.661 211.541 205.89 211.405C207.007 211.338 207.769 211.239 208.36 211.089C208.968 210.935 209.379 210.73 209.796 210.477C211.16 209.648 212.039 208.895 212.454 207.438C212.841 206.075 212.81 204.122 212.626 200.961C211.687 184.758 205.059 169.888 193.393 157.783C192.253 156.6 191.149 155.522 190.286 154.737C189.856 154.345 189.48 154.021 189.185 153.791C189.039 153.677 188.904 153.578 188.786 153.506C188.728 153.47 188.663 153.433 188.596 153.404C188.544 153.381 188.43 153.335 188.291 153.335C188.144 153.335 188.032 153.394 188.013 153.403L188.012 153.404C187.973 153.424 187.939 153.446 187.915 153.463C187.865 153.496 187.81 153.539 187.755 153.583C187.642 153.674 187.493 153.803 187.311 153.965C186.947 154.291 186.432 154.767 185.787 155.375C184.496 156.593 182.668 158.352 180.44 160.52C175.982 164.858 169.913 170.84 163.31 177.419L139.302 201.34Z" fill="#E7D048" stroke="#E7D048" stroke-width="1.12308"/>
</svg>
