<svg width="14" height="14" viewBox="0 0 14 14" fill="none" xmlns="http://www.w3.org/2000/svg">
<path fill-rule="evenodd" clip-rule="evenodd" d="M6.51329 0.11398C6.41261 0.181936 6.27959 0.297933 6.21765 0.371837C5.95088 0.690021 5.9391 0.843973 5.9363 2.45472L5.93361 4.30983H4.87402C3.88766 4.30983 3.80309 4.31927 3.65036 4.44658C3.32519 4.71763 3.37687 4.82043 5.10986 7.35194C6.76096 9.76383 6.87873 9.90051 7.18046 9.75484C7.30378 9.69529 8.25439 8.35498 10.0949 5.6456C10.3801 5.22571 10.571 4.88108 10.571 4.78597C10.571 4.69868 10.5036 4.55585 10.4212 4.46856C10.2733 4.31177 10.2581 4.30983 9.17034 4.30983H8.06926V2.36749C8.06926 0.471799 8.07743 0.54648 7.65671 0.206441C7.37169 -0.0239366 6.7875 -0.071202 6.51329 0.11398ZM0.49004 6.43217C0.357507 6.50569 0.225219 6.6579 0.138756 6.83629L0 7.12247L0.0167192 10.2376C0.0329501 13.2687 0.0367942 13.3575 0.159197 13.5311C0.228392 13.6293 0.360802 13.7696 0.453489 13.8429C0.621351 13.9757 -0.862508 13.9763 6.96012 13.9931C13.0031 14.0092 13.3063 14.0054 13.5119 13.8895C13.6293 13.8233 13.7872 13.6732 13.8627 13.556L14 13.3429L13.9998 10.168C13.9996 7.11406 13.9949 6.98513 13.8783 6.78243C13.7088 6.48771 13.4152 6.31469 13.0847 6.31469C12.7542 6.31469 12.4607 6.48771 12.2912 6.78243C12.1757 6.98313 12.1699 7.11257 12.1697 9.49866L12.1694 12.0042H7.03194H1.89444L1.8931 9.56332C1.89188 7.32355 1.88242 7.10068 1.77826 6.85769C1.56488 6.35982 0.973001 6.16429 0.49004 6.43217Z" fill="#2C2C2C"/>
</svg>
