<svg width="53" height="53" viewBox="0 0 53 53" fill="none" xmlns="http://www.w3.org/2000/svg">
<circle cx="26.5" cy="26.5" r="26.5" fill="#EDEDED"/>
<path fill-rule="evenodd" clip-rule="evenodd" d="M23.1727 12.2228C22.524 12.5712 22.2215 13.115 22.2215 13.9323V14.625L20.693 14.6673C19.2348 14.7075 19.1376 14.7262 18.5824 15.0733C17.893 15.5044 17.2731 16.2824 17.0993 16.935C17.0156 17.2498 16.9851 20.7669 17.0067 27.6182C17.0375 37.3132 17.0505 37.8537 17.261 38.2537C17.5706 38.8422 18.1453 39.4326 18.707 39.7396C19.1817 39.9989 19.2145 40 26.9869 40C34.7592 40 34.7921 39.9989 35.2667 39.7396C35.8284 39.4326 36.4031 38.8422 36.7128 38.2537C36.9224 37.8552 36.9364 37.344 36.9674 28.8902L37 19.9482H35.7462H34.4923V28.444V36.94L34.1999 37.2355L33.9075 37.5312H26.9869H20.0662L19.7739 37.2355L19.4814 36.94V27.387C19.4814 18.9358 19.5029 17.8032 19.6669 17.5664C19.8374 17.3203 19.9478 17.2987 21.0369 17.2987H22.2215V18.6235V19.9482H26.9869H31.7522V18.6258V17.3033L34.3622 17.2709L36.9721 17.2385L36.8134 16.7721C36.5947 16.1291 36.0657 15.4996 35.3838 15.0708C34.8364 14.7264 34.7373 14.7074 33.2807 14.6673L31.7522 14.625V13.9323C31.7522 13.107 31.4346 12.5346 30.7968 12.2108C30.431 12.0249 29.9816 12.0001 26.985 12C23.9072 11.9998 23.5488 12.0207 23.1727 12.2228ZM29.074 14.937C29.2142 15.1533 29.2519 15.4744 29.2256 16.2316L29.1909 17.2385H26.9869H24.7829V16.1427C24.7829 15.3906 24.8342 14.9844 24.9463 14.8481C25.0857 14.6786 25.3887 14.6492 26.9987 14.6492C28.8586 14.6492 28.8904 14.6537 29.074 14.937ZM22.2215 28.1977V29.4623H26.9869H31.7522V28.1977V26.9332H26.9869H22.2215V28.1977ZM22.2215 33.4967V34.7612H26.9869H31.7522V33.4967V32.2322H26.9869H22.2215V33.4967Z" fill="#00A6CA"/>
</svg>
