<svg width="368" height="202" viewBox="0 0 368 202" fill="none" xmlns="http://www.w3.org/2000/svg">
<path d="M359 5H28V185H359V5Z" fill="#E7EFFC"/>
<path d="M23.55 193H20.91V194.01H22.39V197.65C22.39 198.56 21.78 199.06 20.9 199.06C20.02 199.06 19.4 198.57 19.4 197.65V196.88H18.31V197.67C18.31 199.2 19.43 200.1 20.9 200.1C22.38 200.1 23.55 199.2 23.55 197.67V193ZM29.36 198.55L30.05 200H31.26V199.85L28.04 192.95H27.5L24.26 199.85V200H25.48L26.16 198.55H29.36ZM27.77 194.77L28.99 197.57H26.54L27.77 194.77ZM37.5013 200.01H37.9013V193H36.7413V195.55L36.8213 197.69L32.5713 192.98H32.1513V200H33.3013V197.46L33.2213 195.24L37.5013 200.01Z" fill="#ACACAC"/>
<path d="M52.81 196.25H50.03V194.02H53.09V193H48.87V200H50.03V197.28H52.81V196.25ZM58.6085 193H54.3485V200H58.6685V198.94H55.5185V196.9H58.4385V195.87H55.5185V194.02H58.6085V193ZM65.16 194.97C65.16 193.65 64.23 193 62.96 193H60.12V200H63.25C64.61 200 65.47 199.19 65.47 197.94C65.47 197.15 65.07 196.57 64.34 196.32C64.89 196.05 65.16 195.56 65.16 194.97ZM62.88 194.01C63.56 194.01 64.02 194.31 64.02 195C64.01 195.68 63.55 195.94 62.88 195.94H61.28V194.01H62.88ZM63.05 196.89C63.37 196.89 63.69 196.91 63.96 197.11C64.2 197.31 64.32 197.59 64.32 197.94C64.29 198.61 63.83 198.98 63.18 198.98H61.28V196.89H63.05Z" fill="#ACACAC"/>
<path d="M79.15 196.6L76.3 192.98H75.87V200H77.04V195.62L79.07 198.21H79.23L81.25 195.62V200H82.42V192.98H81.99L79.15 196.6ZM88.401 198.55L89.091 200H90.301V199.85L87.081 192.95H86.541L83.301 199.85V200H84.521L85.201 198.55H88.401ZM86.811 194.77L88.031 197.57H85.581L86.811 194.77ZM95.0423 197.38C95.9323 197.06 96.5123 196.25 96.5123 195.28C96.5123 194.03 95.6023 193 94.0823 193H91.1923V200H92.3623V197.56H93.9023L95.6423 200H96.8223V199.83L95.0423 197.38ZM92.3423 196.6V194.01H94.0723C94.8423 194.01 95.3823 194.56 95.3823 195.29C95.3823 196.05 94.8323 196.6 94.0723 196.6H92.3423Z" fill="#ACACAC"/>
<path d="M112.11 198.55L112.8 200H114.01V199.85L110.79 192.95H110.25L107.01 199.85V200H108.23L108.91 198.55H112.11ZM110.52 194.77L111.74 197.57H109.29L110.52 194.77ZM116.071 200V197.9H117.801C119.341 197.9 120.271 196.78 120.271 195.47C120.271 194.14 119.361 193 117.801 193H114.901V200H116.071ZM116.051 196.88V194.01H117.801C118.611 194.01 119.151 194.63 119.151 195.44C119.151 196.25 118.591 196.88 117.801 196.88H116.051ZM125.275 197.38C126.165 197.06 126.745 196.25 126.745 195.28C126.745 194.03 125.835 193 124.315 193H121.425V200H122.595V197.56H124.135L125.875 200H127.055V199.83L125.275 197.38ZM122.575 196.6V194.01H124.305C125.075 194.01 125.615 194.56 125.615 195.29C125.615 196.05 125.065 196.6 124.305 196.6H122.575Z" fill="#ACACAC"/>
<path d="M141.15 196.6L138.3 192.98H137.87V200H139.04V195.62L141.07 198.21H141.23L143.25 195.62V200H144.42V192.98H143.99L141.15 196.6ZM150.401 198.55L151.091 200H152.301V199.85L149.081 192.95H148.541L145.301 199.85V200H146.521L147.201 198.55H150.401ZM148.811 194.77L150.031 197.57H147.581L148.811 194.77ZM154.866 196.17L154.026 194.56L153.086 193H151.836V193.17L154.306 197.16V200H155.466V197.16L157.926 193.17V193H156.686L155.776 194.51L154.906 196.17H154.866Z" fill="#ACACAC"/>
<path d="M173.55 193H170.91V194.01H172.39V197.65C172.39 198.56 171.78 199.06 170.9 199.06C170.02 199.06 169.4 198.57 169.4 197.65V196.88H168.31V197.67C168.31 199.2 169.43 200.1 170.9 200.1C172.38 200.1 173.55 199.2 173.55 197.67V193ZM177.888 200.09C179.378 200.09 180.598 199.21 180.598 197.65V193H179.448V197.62C179.448 198.54 178.768 199.05 177.888 199.05C176.998 199.05 176.308 198.54 176.308 197.62V193H175.148V197.65C175.148 199.21 176.378 200.09 177.888 200.09ZM187.618 200.01H188.018V193H186.858V195.55L186.938 197.69L182.688 192.98H182.268V200H183.418V197.46L183.338 195.24L187.618 200.01Z" fill="#ACACAC"/>
<path d="M203.55 193H200.91V194.01H202.39V197.65C202.39 198.56 201.78 199.06 200.9 199.06C200.02 199.06 199.4 198.57 199.4 197.65V196.88H198.31V197.67C198.31 199.2 199.43 200.1 200.9 200.1C202.38 200.1 203.55 199.2 203.55 197.67V193ZM207.888 200.09C209.378 200.09 210.598 199.21 210.598 197.65V193H209.448V197.62C209.448 198.54 208.768 199.05 207.888 199.05C206.998 199.05 206.308 198.54 206.308 197.62V193H205.148V197.65C205.148 199.21 206.378 200.09 207.888 200.09ZM213.438 193H212.268V200H216.448V198.95H213.438V193Z" fill="#ACACAC"/>
<path d="M29 5L29 185" stroke="#006685" stroke-opacity="0.2" stroke-dasharray="2 2"/>
<path d="M59 5L59 185" stroke="#006685" stroke-opacity="0.2" stroke-dasharray="2 2"/>
<path d="M89 5L89 185" stroke="#006685" stroke-opacity="0.2" stroke-dasharray="2 2"/>
<path d="M119 5L119 185" stroke="#006685" stroke-opacity="0.2" stroke-dasharray="2 2"/>
<path d="M149 5L149 185" stroke="#006685" stroke-opacity="0.2" stroke-dasharray="2 2"/>
<path d="M179 5L179 185" stroke="#006685" stroke-opacity="0.2" stroke-dasharray="2 2"/>
<path d="M209 5L209 185" stroke="#006685" stroke-opacity="0.2" stroke-dasharray="2 2"/>
<path d="M231.11 198.55L231.8 200H233.01V199.85L229.79 192.95H229.25L226.01 199.85V200H227.23L227.91 198.55H231.11ZM229.52 194.77L230.74 197.57H228.29L229.52 194.77ZM236.464 200.09C237.954 200.09 239.174 199.21 239.174 197.65V193H238.024V197.62C238.024 198.54 237.344 199.05 236.464 199.05C235.574 199.05 234.884 198.54 234.884 197.62V193H233.724V197.65C233.724 199.21 234.954 200.09 236.464 200.09ZM240.435 196.49C240.435 198.74 242.055 200.09 243.965 200.09C245.345 200.09 246.545 199.45 247.075 198.12C247.305 197.51 247.355 196.89 247.325 196.22H244.045V197.21H246.225C246.035 198.55 245.165 199.03 243.965 199.03C242.525 199.03 241.615 197.97 241.615 196.49C241.615 195.09 242.495 193.96 243.965 193.96C244.895 193.96 245.575 194.29 245.965 195.1H247.115C246.685 193.55 245.365 192.91 243.975 192.91C242.095 192.91 240.435 194.25 240.435 196.49Z" fill="#ACACAC"/>
<path d="M257.45 198.01C257.48 199.48 258.91 200.16 260.28 200.13C261.59 200.13 263.04 199.55 263.04 198.01C263.04 196.4 261.74 196.12 260.32 195.96C259.51 195.85 258.72 195.75 258.72 194.96C258.72 194.17 259.55 193.91 260.19 193.91C260.88 193.91 261.67 194.15 261.72 194.9H262.82C262.79 193.47 261.53 192.87 260.2 192.87C258.84 192.87 257.57 193.55 257.57 194.99C257.57 196.39 258.84 196.8 260.12 196.91C260.93 196.99 261.88 197.08 261.88 198C261.88 198.87 261 199.09 260.26 199.09C259.5 199.09 258.64 198.8 258.59 198.01H257.45ZM268.605 193H264.345V200H268.665V198.94H265.515V196.9H268.435V195.87H265.515V194.02H268.605V193ZM271.286 200V197.9H273.016C274.556 197.9 275.486 196.78 275.486 195.47C275.486 194.14 274.576 193 273.016 193H270.116V200H271.286ZM271.266 196.88V194.01H273.016C273.826 194.01 274.366 194.63 274.366 195.44C274.366 196.25 273.806 196.88 273.016 196.88H271.266Z" fill="#ACACAC"/>
<path d="M292.59 196.5C292.59 194.22 290.94 192.88 289.03 192.88C287.13 192.88 285.46 194.22 285.46 196.5C285.46 198.78 287.09 200.12 289.01 200.12C291.12 200.12 292.59 198.63 292.59 196.5ZM286.64 196.5C286.64 194.88 287.72 193.97 289.04 193.97C290.35 193.97 291.43 194.9 291.43 196.5C291.43 198.13 290.34 199.02 289.03 199.02C287.71 199.02 286.64 198.13 286.64 196.5ZM293.507 196.51C293.507 198.76 295.157 200.07 297.057 200.07C298.477 200.07 299.917 199.32 300.267 197.61H299.137C298.827 198.54 298.017 199.01 297.057 199.01C295.627 199.01 294.677 197.9 294.677 196.51C294.677 195.02 295.627 193.98 297.057 193.98C297.977 193.99 298.757 194.39 299.107 195.26H300.227C299.857 193.68 298.437 192.92 297.067 192.92C295.157 192.92 293.507 194.25 293.507 196.51ZM302.816 194.03V200H303.956V194.03H305.986V193H300.786V194.03H302.816Z" fill="#ACACAC"/>
<path d="M322.22 200.01H322.62V193H321.46V195.55L321.54 197.69L317.29 192.98H316.87V200H318.02V197.46L317.94 195.24L322.22 200.01ZM331.08 196.5C331.08 194.22 329.43 192.88 327.52 192.88C325.62 192.88 323.95 194.22 323.95 196.5C323.95 198.78 325.58 200.12 327.5 200.12C329.61 200.12 331.08 198.63 331.08 196.5ZM325.13 196.5C325.13 194.88 326.21 193.97 327.53 193.97C328.84 193.97 329.92 194.9 329.92 196.5C329.92 198.13 328.83 199.02 327.52 199.02C326.2 199.02 325.13 198.13 325.13 196.5ZM334.643 198.01L333.683 195.42L332.683 193H331.443V193.17L334.413 200.06H334.893L337.833 193.17V193H336.603L335.593 195.47L334.673 198.01H334.643Z" fill="#ACACAC"/>
<path d="M347.88 193.01V200H350.41C352.61 200 353.83 198.33 353.83 196.49C353.83 194.65 352.59 193.01 350.41 193.01H347.88ZM349.04 198.94V194.06H350.4C351.83 194.06 352.67 195.18 352.67 196.5C352.67 197.82 351.84 198.94 350.39 198.94H349.04ZM359.435 193H355.175V200H359.495V198.94H356.345V196.9H359.265V195.87H356.345V194.02H359.435V193ZM360.458 196.51C360.458 198.76 362.108 200.07 364.008 200.07C365.428 200.07 366.868 199.32 367.218 197.61H366.088C365.778 198.54 364.968 199.01 364.008 199.01C362.578 199.01 361.628 197.9 361.628 196.51C361.628 195.02 362.578 193.98 364.008 193.98C364.928 193.99 365.708 194.39 366.058 195.26H367.178C366.808 193.68 365.388 192.92 364.018 192.92C362.108 192.92 360.458 194.25 360.458 196.51Z" fill="#ACACAC"/>
<path d="M239 5L239 185" stroke="#006685" stroke-opacity="0.2" stroke-dasharray="2 2"/>
<path d="M269 5L269 185" stroke="#006685" stroke-opacity="0.2" stroke-dasharray="2 2"/>
<path d="M299 5L299 185" stroke="#006685" stroke-opacity="0.2" stroke-dasharray="2 2"/>
<path d="M329 5L329 185" stroke="#006685" stroke-opacity="0.2" stroke-dasharray="2 2"/>
<path d="M359 5L359 185" stroke="#006685" stroke-opacity="0.2" stroke-dasharray="2 2"/>
<path d="M1.57328 185.03C1.65328 186.35 2.63328 187.12 3.91328 187.12C5.45328 187.12 6.34328 186.07 6.34328 184.77C6.34328 183.74 5.67328 182.76 4.51328 182.71L6.28328 180.19V180.01H1.85328V180.95H4.67328L3.09328 183.3V183.5C4.05328 183.26 5.24328 183.61 5.24328 184.78C5.24328 185.61 4.70328 186.11 3.89328 186.11C3.17328 186.11 2.67328 185.74 2.60328 185.03H1.57328ZM10.165 179.89C8.715 179.89 7.555 180.8 7.555 182.3V184.72C7.555 186.23 8.715 187.13 10.165 187.13C11.595 187.13 12.755 186.23 12.755 184.72V182.3C12.755 180.8 11.595 179.89 10.165 179.89ZM10.165 186.1C9.445 186.1 8.875 185.75 8.725 185.08C8.685 184.88 8.655 184.66 8.655 184.42V182.61C8.655 182.37 8.685 182.15 8.725 181.95C8.875 181.27 9.445 180.91 10.165 180.91C10.885 180.91 11.445 181.27 11.595 181.95C11.635 182.15 11.665 182.37 11.665 182.61V184.42C11.665 184.66 11.635 184.88 11.595 185.08C11.445 185.75 10.885 186.1 10.165 186.1ZM16.7275 179.89C15.2775 179.89 14.1175 180.8 14.1175 182.3V184.72C14.1175 186.23 15.2775 187.13 16.7275 187.13C18.1575 187.13 19.3175 186.23 19.3175 184.72V182.3C19.3175 180.8 18.1575 179.89 16.7275 179.89ZM16.7275 186.1C16.0075 186.1 15.4375 185.75 15.2875 185.08C15.2475 184.88 15.2175 184.66 15.2175 184.42V182.61C15.2175 182.37 15.2475 182.15 15.2875 181.95C15.4375 181.27 16.0075 180.91 16.7275 180.91C17.4475 180.91 18.0075 181.27 18.1575 181.95C18.1975 182.15 18.2275 182.37 18.2275 182.61V184.42C18.2275 184.66 18.1975 184.88 18.1575 185.08C18.0075 185.75 17.4475 186.1 16.7275 186.1Z" fill="#ACACAC"/>
<path d="M5.7075 156.53H6.3875V155.58H5.7075V151H4.5175L1.2075 156.01V156.53H4.6475V158H5.7075V156.53ZM4.7775 152.36L4.7175 154.07V155.62H2.5775L4.7575 152.36H4.7775ZM10.165 150.89C8.715 150.89 7.555 151.8 7.555 153.3V155.72C7.555 157.23 8.715 158.13 10.165 158.13C11.595 158.13 12.755 157.23 12.755 155.72V153.3C12.755 151.8 11.595 150.89 10.165 150.89ZM10.165 157.1C9.445 157.1 8.875 156.75 8.725 156.08C8.685 155.88 8.655 155.66 8.655 155.42V153.61C8.655 153.37 8.685 153.15 8.725 152.95C8.875 152.27 9.445 151.91 10.165 151.91C10.885 151.91 11.445 152.27 11.595 152.95C11.635 153.15 11.665 153.37 11.665 153.61V155.42C11.665 155.66 11.635 155.88 11.595 156.08C11.445 156.75 10.885 157.1 10.165 157.1ZM16.7275 150.89C15.2775 150.89 14.1175 151.8 14.1175 153.3V155.72C14.1175 157.23 15.2775 158.13 16.7275 158.13C18.1575 158.13 19.3175 157.23 19.3175 155.72V153.3C19.3175 151.8 18.1575 150.89 16.7275 150.89ZM16.7275 157.1C16.0075 157.1 15.4375 156.75 15.2875 156.08C15.2475 155.88 15.2175 155.66 15.2175 155.42V153.61C15.2175 153.37 15.2475 153.15 15.2875 152.95C15.4375 152.27 16.0075 151.91 16.7275 151.91C17.4475 151.91 18.0075 152.27 18.1575 152.95C18.1975 153.15 18.2275 153.37 18.2275 153.61V155.42C18.2275 155.66 18.1975 155.88 18.1575 156.08C18.0075 156.75 17.4475 157.1 16.7275 157.1Z" fill="#ACACAC"/>
<path d="M2.81422 121.98H5.99422V121H1.86422V124.5C2.37422 124.38 3.05422 124.27 3.68422 124.3C4.58422 124.35 5.35422 124.7 5.33422 125.79C5.30422 126.74 4.65422 127.15 3.95422 127.15C3.26422 127.15 2.75422 126.8 2.68422 126.07H1.61422C1.72422 127.37 2.66422 128.12 3.92422 128.12C5.55422 128.12 6.41422 127.02 6.41422 125.76C6.41422 124.05 5.22422 123.46 3.75422 123.43C3.43422 123.43 3.12422 123.46 2.81422 123.53V121.98ZM10.165 120.89C8.715 120.89 7.555 121.8 7.555 123.3V125.72C7.555 127.23 8.715 128.13 10.165 128.13C11.595 128.13 12.755 127.23 12.755 125.72V123.3C12.755 121.8 11.595 120.89 10.165 120.89ZM10.165 127.1C9.445 127.1 8.875 126.75 8.725 126.08C8.685 125.88 8.655 125.66 8.655 125.42V123.61C8.655 123.37 8.685 123.15 8.725 122.95C8.875 122.27 9.445 121.91 10.165 121.91C10.885 121.91 11.445 122.27 11.595 122.95C11.635 123.15 11.665 123.37 11.665 123.61V125.42C11.665 125.66 11.635 125.88 11.595 126.08C11.445 126.75 10.885 127.1 10.165 127.1ZM16.7275 120.89C15.2775 120.89 14.1175 121.8 14.1175 123.3V125.72C14.1175 127.23 15.2775 128.13 16.7275 128.13C18.1575 128.13 19.3175 127.23 19.3175 125.72V123.3C19.3175 121.8 18.1575 120.89 16.7275 120.89ZM16.7275 127.1C16.0075 127.1 15.4375 126.75 15.2875 126.08C15.2475 125.88 15.2175 125.66 15.2175 125.42V123.61C15.2175 123.37 15.2475 123.15 15.2875 122.95C15.4375 122.27 16.0075 121.91 16.7275 121.91C17.4475 121.91 18.0075 122.27 18.1575 122.95C18.1975 123.15 18.2275 123.37 18.2275 123.61V125.42C18.2275 125.66 18.1975 125.88 18.1575 126.08C18.0075 126.75 17.4475 127.1 16.7275 127.1Z" fill="#ACACAC"/>
<path d="M3.90844 90.96L1.78844 94.32C1.51844 94.73 1.33844 95.26 1.33844 95.77C1.33844 97.33 2.48844 98.1 3.92844 98.1C5.37844 98.1 6.52844 97.33 6.52844 95.77C6.52844 94.32 5.49844 93.49 4.11844 93.52C3.89844 93.52 3.68844 93.57 3.48844 93.68L5.19844 90.96H3.90844ZM3.92844 97.11C3.08844 97.11 2.47844 96.64 2.47844 95.77C2.47844 94.9 3.07844 94.42 3.92844 94.42C4.76844 94.42 5.37844 94.9 5.37844 95.77C5.37844 96.64 4.77844 97.11 3.92844 97.11ZM10.165 90.89C8.715 90.89 7.555 91.8 7.555 93.3V95.72C7.555 97.23 8.715 98.13 10.165 98.13C11.595 98.13 12.755 97.23 12.755 95.72V93.3C12.755 91.8 11.595 90.89 10.165 90.89ZM10.165 97.1C9.445 97.1 8.875 96.75 8.725 96.08C8.685 95.88 8.655 95.66 8.655 95.42V93.61C8.655 93.37 8.685 93.15 8.725 92.95C8.875 92.27 9.445 91.91 10.165 91.91C10.885 91.91 11.445 92.27 11.595 92.95C11.635 93.15 11.665 93.37 11.665 93.61V95.42C11.665 95.66 11.635 95.88 11.595 96.08C11.445 96.75 10.885 97.1 10.165 97.1ZM16.7275 90.89C15.2775 90.89 14.1175 91.8 14.1175 93.3V95.72C14.1175 97.23 15.2775 98.13 16.7275 98.13C18.1575 98.13 19.3175 97.23 19.3175 95.72V93.3C19.3175 91.8 18.1575 90.89 16.7275 90.89ZM16.7275 97.1C16.0075 97.1 15.4375 96.75 15.2875 96.08C15.2475 95.88 15.2175 95.66 15.2175 95.42V93.61C15.2175 93.37 15.2475 93.15 15.2875 92.95C15.4375 92.27 16.0075 91.91 16.7275 91.91C17.4475 91.91 18.0075 92.27 18.1575 92.95C18.1975 93.15 18.2275 93.37 18.2275 93.61V95.42C18.2275 95.66 18.1975 95.88 18.1575 96.08C18.0075 96.75 17.4475 97.1 16.7275 97.1Z" fill="#ACACAC"/>
<path d="M6.77203 61H1.93203V62.03H5.19203L2.48203 68H3.66203L6.77203 61.17V61ZM10.165 60.89C8.715 60.89 7.555 61.8 7.555 63.3V65.72C7.555 67.23 8.715 68.13 10.165 68.13C11.595 68.13 12.755 67.23 12.755 65.72V63.3C12.755 61.8 11.595 60.89 10.165 60.89ZM10.165 67.1C9.445 67.1 8.875 66.75 8.725 66.08C8.685 65.88 8.655 65.66 8.655 65.42V63.61C8.655 63.37 8.685 63.15 8.725 62.95C8.875 62.27 9.445 61.91 10.165 61.91C10.885 61.91 11.445 62.27 11.595 62.95C11.635 63.15 11.665 63.37 11.665 63.61V65.42C11.665 65.66 11.635 65.88 11.595 66.08C11.445 66.75 10.885 67.1 10.165 67.1ZM16.7275 60.89C15.2775 60.89 14.1175 61.8 14.1175 63.3V65.72C14.1175 67.23 15.2775 68.13 16.7275 68.13C18.1575 68.13 19.3175 67.23 19.3175 65.72V63.3C19.3175 61.8 18.1575 60.89 16.7275 60.89ZM16.7275 67.1C16.0075 67.1 15.4375 66.75 15.2875 66.08C15.2475 65.88 15.2175 65.66 15.2175 65.42V63.61C15.2175 63.37 15.2475 63.15 15.2875 62.95C15.4375 62.27 16.0075 61.91 16.7275 61.91C17.4475 61.91 18.0075 62.27 18.1575 62.95C18.1975 63.15 18.2275 63.37 18.2275 63.61V65.42C18.2275 65.66 18.1975 65.88 18.1575 66.08C18.0075 66.75 17.4475 67.1 16.7275 67.1Z" fill="#ACACAC"/>
<path d="M5.12359 34.06C5.60359 33.77 5.94359 33.31 5.94359 32.71C5.94359 31.69 5.08359 30.89 3.78359 30.89C2.46359 30.89 1.60359 31.72 1.63359 32.73C1.63359 33.33 1.95359 33.78 2.42359 34.06C1.67359 34.41 1.18359 35.06 1.18359 35.91C1.18359 37.14 2.21359 38.11 3.78359 38.11C5.36359 38.11 6.37359 37.14 6.37359 35.89C6.36359 35.05 5.87359 34.41 5.12359 34.06ZM3.77359 33.71C3.16359 33.71 2.65359 33.34 2.65359 32.77C2.65359 32.18 3.14359 31.81 3.78359 31.81C4.39359 31.81 4.90359 32.17 4.90359 32.76C4.90359 33.35 4.41359 33.71 3.77359 33.71ZM3.78359 37.13C2.98359 37.13 2.32359 36.64 2.32359 35.88C2.32359 35.09 2.97359 34.57 3.77359 34.57C4.58359 34.57 5.24359 35.07 5.24359 35.86C5.24359 36.63 4.58359 37.13 3.78359 37.13ZM10.165 30.89C8.715 30.89 7.555 31.8 7.555 33.3V35.72C7.555 37.23 8.715 38.13 10.165 38.13C11.595 38.13 12.755 37.23 12.755 35.72V33.3C12.755 31.8 11.595 30.89 10.165 30.89ZM10.165 37.1C9.445 37.1 8.875 36.75 8.725 36.08C8.685 35.88 8.655 35.66 8.655 35.42V33.61C8.655 33.37 8.685 33.15 8.725 32.95C8.875 32.27 9.445 31.91 10.165 31.91C10.885 31.91 11.445 32.27 11.595 32.95C11.635 33.15 11.665 33.37 11.665 33.61V35.42C11.665 35.66 11.635 35.88 11.595 36.08C11.445 36.75 10.885 37.1 10.165 37.1ZM16.7275 30.89C15.2775 30.89 14.1175 31.8 14.1175 33.3V35.72C14.1175 37.23 15.2775 38.13 16.7275 38.13C18.1575 38.13 19.3175 37.23 19.3175 35.72V33.3C19.3175 31.8 18.1575 30.89 16.7275 30.89ZM16.7275 37.1C16.0075 37.1 15.4375 36.75 15.2875 36.08C15.2475 35.88 15.2175 35.66 15.2175 35.42V33.61C15.2175 33.37 15.2475 33.15 15.2875 32.95C15.4375 32.27 16.0075 31.91 16.7275 31.91C17.4475 31.91 18.0075 32.27 18.1575 32.95C18.1975 33.15 18.2275 33.37 18.2275 33.61V35.42C18.2275 35.66 18.1975 35.88 18.1575 36.08C18.0075 36.75 17.4475 37.1 16.7275 37.1Z" fill="#ACACAC"/>
<path d="M3.88773 8L5.99773 4.65C6.30773 4.18 6.46773 3.73 6.46773 3.17C6.46773 1.61 5.31773 0.84 3.87773 0.84C2.42773 0.84 1.27773 1.61 1.27773 3.17C1.27773 4.62 2.31773 5.45 3.71773 5.42C3.94773 5.42 4.18773 5.36 4.37773 5.25L2.61773 8H3.88773ZM3.87773 1.83C4.71773 1.83 5.31773 2.3 5.31773 3.17C5.31773 4.04 4.71773 4.52 3.87773 4.52C3.03773 4.52 2.42773 4.04 2.42773 3.17C2.42773 2.3 3.02773 1.83 3.87773 1.83ZM10.165 0.89C8.715 0.89 7.555 1.8 7.555 3.3V5.72C7.555 7.23 8.715 8.13 10.165 8.13C11.595 8.13 12.755 7.23 12.755 5.72V3.3C12.755 1.8 11.595 0.89 10.165 0.89ZM10.165 7.1C9.445 7.1 8.875 6.75 8.725 6.08C8.685 5.88 8.655 5.66 8.655 5.42V3.61C8.655 3.37 8.685 3.15 8.725 2.95C8.875 2.27 9.445 1.91 10.165 1.91C10.885 1.91 11.445 2.27 11.595 2.95C11.635 3.15 11.665 3.37 11.665 3.61V5.42C11.665 5.66 11.635 5.88 11.595 6.08C11.445 6.75 10.885 7.1 10.165 7.1ZM16.7275 0.89C15.2775 0.89 14.1175 1.8 14.1175 3.3V5.72C14.1175 7.23 15.2775 8.13 16.7275 8.13C18.1575 8.13 19.3175 7.23 19.3175 5.72V3.3C19.3175 1.8 18.1575 0.89 16.7275 0.89ZM16.7275 7.1C16.0075 7.1 15.4375 6.75 15.2875 6.08C15.2475 5.88 15.2175 5.66 15.2175 5.42V3.61C15.2175 3.37 15.2475 3.15 15.2875 2.95C15.4375 2.27 16.0075 1.91 16.7275 1.91C17.4475 1.91 18.0075 2.27 18.1575 2.95C18.1975 3.15 18.2275 3.37 18.2275 3.61V5.42C18.2275 5.66 18.1975 5.88 18.1575 6.08C18.0075 6.75 17.4475 7.1 16.7275 7.1Z" fill="#ACACAC"/>
<path d="M29 5.00006L359 5.00003" stroke="#006685" stroke-opacity="0.2" stroke-dasharray="2 2"/>
<path d="M29 35L359 34.9999" stroke="#006685" stroke-opacity="0.2" stroke-dasharray="2 2"/>
<path d="M29 65.0002L359 65.0001" stroke="#006685" stroke-opacity="0.2" stroke-dasharray="2 2"/>
<path d="M29 95.0002L359 95.0002" stroke="#006685" stroke-opacity="0.2" stroke-dasharray="2 2"/>
<path d="M29 125L359 125" stroke="#006685" stroke-opacity="0.2" stroke-dasharray="2 2"/>
<path d="M29 155L359 155" stroke="#006685" stroke-opacity="0.2" stroke-dasharray="2 2"/>
<path d="M29 185L359 185" stroke="#006685" stroke-opacity="0.2" stroke-dasharray="2 2"/>
<path d="M28 185H359" stroke="#9EBFD2" stroke-width="1.6"/>
<circle cx="200" cy="30" r="8" fill="#7D7D7D"/>
<path d="M200.869 32.2356C200.869 30.2826 203 29.5674 203 27.8345C203 25.9228 201.588 24.96 199.959 25.0013C198.344 25.0425 197 25.964 197 27.917H198.67C198.738 27.2018 199.348 26.8442 199.946 26.8442C200.964 26.8442 201.235 27.752 200.91 28.4809C200.367 29.7049 199.077 30.0763 199.077 32.2356H200.869ZM200 35C200.638 35 201.1 34.5736 201.1 33.9547C201.1 33.3083 200.638 32.8957 200 32.8957C199.362 32.8957 198.873 33.3083 198.873 33.9547C198.873 34.5736 199.362 35 200 35Z" fill="white"/>
<circle cx="199" cy="106" r="8" fill="#7D7D7D"/>
<path d="M199.869 108.236C199.869 106.283 202 105.567 202 103.834C202 101.923 200.588 100.96 198.959 101.001C197.344 101.043 196 101.964 196 103.917H197.67C197.738 103.202 198.348 102.844 198.946 102.844C199.964 102.844 200.235 103.752 199.91 104.481C199.367 105.705 198.077 106.076 198.077 108.236H199.869ZM199 111C199.638 111 200.1 110.574 200.1 109.955C200.1 109.308 199.638 108.896 199 108.896C198.362 108.896 197.873 109.308 197.873 109.955C197.873 110.574 198.362 111 199 111Z" fill="white"/>
<path d="M156 68L192 35" stroke="#3BB012" stroke-width="2" stroke-dasharray="4 4"/>
<path d="M191 101L155 68" stroke="#D74025" stroke-width="2" stroke-dasharray="4 4"/>
<circle cx="154.615" cy="67.6154" r="9.61539" fill="#7D7D7D"/>
<path d="M155.514 70.6827C155.514 68.3391 158 67.4809 158 65.4014C158 63.1073 156.353 61.952 154.452 62.0015C152.568 62.051 151 63.1568 151 65.5004H152.948C153.027 64.6422 153.74 64.2131 154.437 64.2131C155.624 64.2131 155.941 65.3023 155.561 66.1771C154.928 67.6459 153.423 68.0915 153.423 70.6827H155.514ZM154.5 74C155.244 74 155.783 73.4884 155.783 72.7457C155.783 71.97 155.244 71.4749 154.5 71.4749C153.756 71.4749 153.186 71.97 153.186 72.7457C153.186 73.4884 153.756 74 154.5 74Z" fill="white"/>
</svg>
