<svg width="334" height="187" viewBox="0 0 334 187" fill="none" xmlns="http://www.w3.org/2000/svg">
<rect width="334" height="187" fill="white"/>
<path d="M23.7844 24.6172C24.5288 24.6172 25.1688 24.0686 25.1688 23.3372C25.1688 22.5405 24.5288 22.0442 23.7844 22.0442C23.0529 22.0442 22.426 22.5405 22.426 23.3372C22.426 24.0686 23.0529 24.6172 23.7844 24.6172ZM35.9033 18.8573H34.8061V28H40.2134V27.0204H35.9033V18.8573ZM47.7717 24.8392C47.7717 20.4638 41.1367 20.4638 41.1367 24.8392C41.1367 29.2147 47.7717 29.1885 47.7717 24.8392ZM42.1685 24.8392C42.1685 21.6393 46.7529 21.6393 46.7529 24.8392C46.7529 28.0522 42.1685 28.0522 42.1685 24.8392ZM55.4471 23.6246C55.0552 22.2532 53.8144 21.5609 52.5345 21.5479C50.8888 21.5348 49.1909 22.6319 49.1909 24.8262C49.1909 26.9943 50.8627 28.1045 52.5083 28.1045C53.8275 28.1045 55.1336 27.3731 55.5124 25.8841H54.5197C54.1802 26.7723 53.3573 27.2033 52.5214 27.2033C51.3851 27.2033 50.2227 26.3804 50.2227 24.8262C50.2227 23.2589 51.4243 22.4621 52.5737 22.4621C53.3704 22.4621 54.1279 22.8409 54.4675 23.6246H55.4471ZM61.4996 26.8637C61.4996 28.0131 61.9959 28.209 63.0408 28.0392L63.0277 27.3731C62.2571 27.4776 62.2963 27.0727 62.2963 26.3804V23.7552C62.3355 22.1095 60.9641 21.5609 59.5405 21.5609C58.7046 21.5609 57.9078 21.7177 57.294 22.0311L57.4638 22.8409C57.9993 22.5275 58.6654 22.3838 59.3837 22.3838C60.2458 22.3838 61.369 22.6711 61.369 23.7291V24.4997C60.7421 24.147 59.9192 23.9772 59.2009 23.9772C57.8948 23.9772 56.7585 24.7217 56.7977 26.1584C56.8368 27.4253 57.8556 28.1045 59.018 28.1045C59.9715 28.1045 61.0425 27.7388 61.4996 26.8637ZM61.3559 25.8711C61.147 26.8115 60.0237 27.2294 59.2009 27.2294C58.4956 27.2294 57.8425 26.9159 57.8033 26.1192C57.7642 25.218 58.5348 24.7609 59.3707 24.7609C60.0107 24.7609 60.7813 24.9437 61.3559 25.2703V25.8711ZM66.1523 19.7716H65.3033L65.1988 21.7307H63.7882V22.4099L65.1335 22.4752V25.5837C65.1335 27.9608 66.6225 28.5747 68.7775 27.8825L68.66 27.0596C67.1449 27.6212 66.1523 27.1641 66.1523 25.5576V22.4752H68.4641V21.7307H66.1523V19.7716ZM70.1345 19.6279C70.1345 20.503 71.4276 20.503 71.4276 19.6279C71.4276 18.7659 70.1345 18.7659 70.1345 19.6279ZM71.2839 21.7569H70.2652V28H71.2839V21.7569ZM79.7915 24.8392C79.7915 20.4638 73.1565 20.4638 73.1565 24.8392C73.1565 29.2147 79.7915 29.1885 79.7915 24.8392ZM74.1883 24.8392C74.1883 21.6393 78.7727 21.6393 78.7727 24.8392C78.7727 28.0522 74.1883 28.0522 74.1883 24.8392ZM87.5322 28V24.2646C87.5322 22.7234 86.6701 21.574 85.0114 21.574C84.1233 21.574 83.3527 21.796 82.791 22.645C82.791 21.4303 81.8245 21.5871 81.0931 21.6915L81.1062 22.5013C81.7723 22.436 81.8376 22.6581 81.8376 23.507V28H82.8563V24.2254C82.8563 23.1674 83.6661 22.423 84.7371 22.423C85.7689 22.423 86.5004 23.1283 86.5004 24.2646V28H87.5322Z" fill="black"/>
<path d="M102.19 24.6172C102.934 24.6172 103.574 24.0686 103.574 23.3372C103.574 22.5405 102.934 22.0442 102.19 22.0442C101.458 22.0442 100.831 22.5405 100.831 23.3372C100.831 24.0686 101.458 24.6172 102.19 24.6172ZM115.157 27.1249V19.7193H116.633V18.8573H112.584V19.7193H114.06V27.1249H112.48V28H116.738V27.1249H115.157ZM124.218 28V24.2646C124.218 22.7234 123.356 21.574 121.697 21.574C120.809 21.574 120.038 21.796 119.477 22.645C119.477 21.4303 118.51 21.5871 117.779 21.6915L117.792 22.5013C118.458 22.436 118.523 22.6581 118.523 23.507V28H119.542V24.2254C119.542 23.1674 120.352 22.423 121.423 22.423C122.455 22.423 123.186 23.1283 123.186 24.2646V28H124.218ZM132.22 23.6246C131.828 22.2532 130.587 21.5609 129.307 21.5479C127.661 21.5348 125.964 22.6319 125.964 24.8262C125.964 26.9943 127.635 28.1045 129.281 28.1045C130.6 28.1045 131.906 27.3731 132.285 25.8841H131.292C130.953 26.7723 130.13 27.2033 129.294 27.2033C128.158 27.2033 126.995 26.3804 126.995 24.8262C126.995 23.2589 128.197 22.4621 129.346 22.4621C130.143 22.4621 130.901 22.8409 131.24 23.6246H132.22ZM140.271 24.8392C140.271 20.4638 133.636 20.4638 133.636 24.8392C133.636 29.2147 140.271 29.1885 140.271 24.8392ZM134.667 24.8392C134.667 21.6393 139.252 21.6393 139.252 24.8392C139.252 28.0522 134.667 28.0522 134.667 24.8392ZM151.89 28V24.2515C151.89 22.8017 151.394 21.574 149.709 21.574C148.664 21.574 147.711 22.005 147.306 22.9323C147.058 22.0442 146.405 21.574 145.36 21.574C144.459 21.574 143.688 21.8613 143.231 22.6972C143.231 21.4565 142.447 21.5348 141.559 21.6785L141.572 22.423C142.238 22.3577 142.304 22.6058 142.304 23.4417V28H143.322V24.3429C143.322 23.1936 143.988 22.423 145.086 22.423C146.183 22.423 146.548 23.2458 146.548 24.3037V28H147.567V24.3299C147.567 23.2066 148.377 22.423 149.422 22.423C150.48 22.423 150.845 23.2458 150.845 24.2515V28H151.89ZM156.899 21.5609C155.175 21.5609 153.738 22.6972 153.673 24.6825C153.608 26.8245 155.084 28.1437 157.173 28.1437C157.944 28.1437 158.741 27.9608 159.485 27.6082L159.328 26.8376C158.597 27.138 157.918 27.2947 157.199 27.2947C155.776 27.2947 154.626 26.4066 154.692 24.9568H159.694C160.047 22.8801 159.041 21.574 156.899 21.5609ZM156.899 22.3707C158.022 22.3707 158.897 22.9846 158.832 24.1731H154.731C154.901 23.0368 155.75 22.3707 156.899 22.3707ZM166.893 19.8369V28H167.951V19.8369H170.772V18.8573H164.072V19.8369H166.893ZM176.935 21.8222V21.7177H175.903L174.754 24.5388L173.801 27.0074H173.787L172.756 24.5127L171.502 21.7177H170.418V21.8222L173.304 28.0522L172.939 28.9404C172.521 29.9853 172.024 30.7689 170.823 30.2073L170.679 30.9648C172.743 31.866 173.461 30.1289 174.166 28.4441L176.935 21.8222ZM179.624 22.7495C179.663 21.7569 178.984 21.5218 177.991 21.6915L178.005 22.4491C178.84 22.3446 178.749 22.9976 178.749 23.8074V31.2391H179.768V27.4253C182.014 28.9404 184.77 27.6212 184.77 24.8131C184.77 23.0107 183.764 21.5348 181.923 21.5348C181.022 21.5348 180.212 21.796 179.624 22.7495ZM179.742 24.5519C179.781 23.4678 180.525 22.4621 181.727 22.4621C183.138 22.4621 183.725 23.5593 183.725 24.8131C183.725 27.1249 181.453 27.8302 179.742 26.498V24.5519ZM189.442 21.5609C187.718 21.5609 186.281 22.6972 186.216 24.6825C186.15 26.8245 187.626 28.1437 189.716 28.1437C190.487 28.1437 191.283 27.9608 192.028 27.6082L191.871 26.8376C191.14 27.138 190.461 27.2947 189.742 27.2947C188.319 27.2947 187.169 26.4066 187.234 24.9568H192.237C192.589 22.8801 191.584 21.574 189.442 21.5609ZM189.442 22.3707C190.565 22.3707 191.44 22.9846 191.375 24.1731H187.274C187.443 23.0368 188.292 22.3707 189.442 22.3707Z" fill="black"/>
<path d="M206.725 24.6172C207.469 24.6172 208.109 24.0686 208.109 23.3372C208.109 22.5405 207.469 22.0442 206.725 22.0442C205.993 22.0442 205.366 22.5405 205.366 23.3372C205.366 24.0686 205.993 24.6172 206.725 24.6172ZM221.939 23.9511L218.178 18.8443H217.747V28H218.844V21.4042L221.848 25.5315H222.018L225.022 21.4042V28H226.119V18.8443H225.701L221.939 23.9511ZM234.692 24.8392C234.692 20.4638 228.057 20.4638 228.057 24.8392C228.057 29.2147 234.692 29.1885 234.692 24.8392ZM229.088 24.8392C229.088 21.6393 233.673 21.6393 233.673 24.8392C233.673 28.0522 229.088 28.0522 229.088 24.8392ZM242.432 28V24.2646C242.432 22.7234 241.57 21.574 239.912 21.574C239.023 21.574 238.253 21.796 237.691 22.645C237.691 21.4303 236.725 21.5871 235.993 21.6915L236.006 22.5013C236.672 22.436 236.738 22.6581 236.738 23.507V28H237.756V24.2254C237.756 23.1674 238.566 22.423 239.637 22.423C240.669 22.423 241.401 23.1283 241.401 24.2646V28H242.432ZM246.166 19.7716H245.317L245.212 21.7307H243.802V22.4099L245.147 22.4752V25.5837C245.147 27.9608 246.636 28.5747 248.791 27.8825L248.673 27.0596C247.158 27.6212 246.166 27.1641 246.166 25.5576V22.4752H248.478V21.7307H246.166V19.7716ZM255.973 28V24.2907C255.973 22.6581 255.163 21.5609 253.439 21.5479C252.46 21.5479 251.846 21.8352 251.284 22.5275V18.4524H250.252V28H251.284V24.3299C251.284 23.1674 252.042 22.3838 253.178 22.3968C254.275 22.3968 254.941 23.0891 254.928 24.2907V28H255.973ZM258.076 18.4263V25.7274C258.076 27.6735 258.807 28.3396 260.727 28.0261L260.688 27.2163C259.369 27.3861 259.108 26.9551 259.108 25.7274V18.4263H258.076ZM267.555 21.8222V21.7177H266.523L265.374 24.5388L264.421 27.0074H264.408L263.376 24.5127L262.122 21.7177H261.038V21.8222L263.924 28.0522L263.559 28.9404C263.141 29.9853 262.644 30.7689 261.443 30.2073L261.299 30.9648C263.363 31.866 264.081 30.1289 264.786 28.4441L267.555 21.8222ZM274.651 27.1249V19.7193H276.127V18.8573H272.078V19.7193H273.554V27.1249H271.974V28H276.232V27.1249H274.651ZM283.712 28V24.2646C283.712 22.7234 282.85 21.574 281.191 21.574C280.303 21.574 279.532 21.796 278.971 22.645C278.971 21.4303 278.004 21.5871 277.273 21.6915L277.286 22.5013C277.952 22.436 278.017 22.6581 278.017 23.507V28H279.036V24.2254C279.036 23.1674 279.846 22.423 280.917 22.423C281.948 22.423 282.68 23.1283 282.68 24.2646V28H283.712ZM291.714 23.6246C291.322 22.2532 290.081 21.5609 288.801 21.5479C287.155 21.5348 285.457 22.6319 285.457 24.8262C285.457 26.9943 287.129 28.1045 288.775 28.1045C290.094 28.1045 291.4 27.3731 291.779 25.8841H290.786C290.447 26.7723 289.624 27.2033 288.788 27.2033C287.652 27.2033 286.489 26.3804 286.489 24.8262C286.489 23.2589 287.691 22.4621 288.84 22.4621C289.637 22.4621 290.394 22.8409 290.734 23.6246H291.714ZM299.764 24.8392C299.764 20.4638 293.129 20.4638 293.129 24.8392C293.129 29.2147 299.764 29.1885 299.764 24.8392ZM294.161 24.8392C294.161 21.6393 298.746 21.6393 298.746 24.8392C298.746 28.0522 294.161 28.0522 294.161 24.8392ZM311.384 28V24.2515C311.384 22.8017 310.888 21.574 309.203 21.574C308.158 21.574 307.205 22.005 306.8 22.9323C306.552 22.0442 305.899 21.574 304.854 21.574C303.952 21.574 303.182 21.8613 302.725 22.6972C302.725 21.4565 301.941 21.5348 301.053 21.6785L301.066 22.423C301.732 22.3577 301.797 22.6058 301.797 23.4417V28H302.816V24.3429C302.816 23.1936 303.482 22.423 304.579 22.423C305.677 22.423 306.042 23.2458 306.042 24.3037V28H307.061V24.3299C307.061 23.2066 307.871 22.423 308.916 22.423C309.974 22.423 310.339 23.2458 310.339 24.2515V28H311.384ZM316.393 21.5609C314.669 21.5609 313.232 22.6972 313.167 24.6825C313.101 26.8245 314.577 28.1437 316.667 28.1437C317.438 28.1437 318.234 27.9608 318.979 27.6082L318.822 26.8376C318.091 27.138 317.412 27.2947 316.693 27.2947C315.27 27.2947 314.12 26.4066 314.186 24.9568H319.188C319.541 22.8801 318.535 21.574 316.393 21.5609ZM316.393 22.3707C317.516 22.3707 318.391 22.9846 318.326 24.1731H314.225C314.395 23.0368 315.243 22.3707 316.393 22.3707Z" fill="black"/>
<path d="M122.896 114.737L121.956 112.934L120.904 111.188H119.504V111.378L122.269 115.845V119.024H123.568V115.845L126.322 111.378V111.188H124.934L123.915 112.878L122.941 114.737H122.896ZM131.83 116.304C131.83 114.412 130.375 113.472 128.931 113.494C127.52 113.516 126.132 114.446 126.132 116.304C126.132 118.185 127.554 119.125 128.976 119.125C130.397 119.125 131.83 118.185 131.83 116.304ZM127.341 116.304C127.341 115.162 128.125 114.591 128.931 114.569C129.759 114.546 130.61 115.129 130.61 116.304C130.61 117.457 129.804 118.039 128.998 118.05C128.169 118.062 127.341 117.479 127.341 116.304ZM137 113.628V116.718C137 117.58 136.407 118.14 135.635 118.14C134.918 118.14 134.459 117.614 134.47 116.752V113.628H133.239V116.752C133.239 118.073 133.765 119.114 135.254 119.114C136.015 119.114 136.754 118.879 137.124 118.151C137.124 119.315 138.109 119.17 138.803 119.047L138.792 118.252C138.277 118.308 138.221 118.129 138.221 117.479V113.628H137ZM141.531 114.412C141.475 113.539 140.602 113.404 139.807 113.584L139.818 114.412C140.4 114.378 140.4 114.625 140.4 115.106V119.024H141.609V115.901C141.609 115.028 142.259 114.558 142.986 114.558C143.378 114.558 143.736 114.67 144.061 114.882L144.363 113.83C144.016 113.572 143.568 113.438 143.121 113.449C142.46 113.449 141.744 113.785 141.531 114.412ZM147.943 115.117C147.943 117.636 149.79 119.103 151.917 119.103C153.507 119.103 155.119 118.263 155.511 116.349H154.246C153.899 117.39 152.992 117.916 151.917 117.916C150.317 117.916 149.253 116.673 149.253 115.117C149.253 113.449 150.317 112.285 151.917 112.285C152.947 112.296 153.821 112.744 154.212 113.718H155.466C155.052 111.949 153.462 111.098 151.929 111.098C149.79 111.098 147.943 112.587 147.943 115.117ZM159.147 117.972V112.229H160.289V111.188H156.706V112.229H157.848V117.972H156.606V119.024H160.39V117.972H159.147ZM167.677 113.393C167.677 111.916 166.636 111.188 165.214 111.188H162.035V119.024H165.539C167.061 119.024 168.024 118.118 168.024 116.718C168.024 115.834 167.576 115.184 166.759 114.905C167.375 114.602 167.677 114.054 167.677 113.393ZM165.125 112.319C165.886 112.319 166.401 112.654 166.401 113.427C166.39 114.188 165.875 114.479 165.125 114.479H163.334V112.319H165.125ZM165.315 115.543C165.673 115.543 166.032 115.565 166.334 115.789C166.602 116.013 166.737 116.326 166.737 116.718C166.703 117.468 166.188 117.883 165.461 117.883H163.334V115.543H165.315ZM171.763 117.972V112.229H172.905V111.188H169.322V112.229H170.464V117.972H169.222V119.024H173.005V117.972H171.763ZM175.961 111.188H174.651V119.024H179.33V117.849H175.961V111.188ZM182.937 116.797C182.971 118.442 184.572 119.204 186.106 119.17C187.572 119.17 189.195 118.521 189.195 116.797C189.195 114.994 187.74 114.681 186.15 114.502C185.244 114.378 184.359 114.266 184.359 113.382C184.359 112.498 185.288 112.207 186.005 112.207C186.777 112.207 187.662 112.475 187.718 113.315H188.949C188.916 111.714 187.505 111.042 186.016 111.042C184.493 111.042 183.072 111.804 183.072 113.416C183.072 114.983 184.493 115.442 185.926 115.565C186.833 115.655 187.897 115.755 187.897 116.785C187.897 117.759 186.912 118.006 186.083 118.006C185.232 118.006 184.27 117.681 184.214 116.797H182.937ZM195.817 115.42C195.526 114.099 194.373 113.46 193.197 113.472C191.798 113.483 190.365 114.446 190.365 116.304C190.365 118.174 191.798 119.114 193.208 119.114C194.395 119.114 195.571 118.442 195.85 117.076H194.686C194.44 117.737 193.835 118.062 193.231 118.062C192.414 118.062 191.574 117.468 191.574 116.304C191.574 115.162 192.425 114.558 193.253 114.558C193.88 114.558 194.451 114.837 194.686 115.42H195.817ZM202.617 116.304C202.617 114.412 201.162 113.472 199.718 113.494C198.307 113.516 196.919 114.446 196.919 116.304C196.919 118.185 198.341 119.125 199.762 119.125C201.184 119.125 202.617 118.185 202.617 116.304ZM198.128 116.304C198.128 115.162 198.912 114.591 199.718 114.569C200.546 114.546 201.397 115.129 201.397 116.304C201.397 117.457 200.591 118.039 199.785 118.05C198.956 118.062 198.128 117.479 198.128 116.304ZM205.414 114.412C205.358 113.539 204.485 113.404 203.69 113.584L203.701 114.412C204.283 114.378 204.283 114.625 204.283 115.106V119.024H205.492V115.901C205.492 115.028 206.142 114.558 206.869 114.558C207.261 114.558 207.619 114.67 207.944 114.882L208.246 113.83C207.899 113.572 207.451 113.438 207.004 113.449C206.343 113.449 205.627 113.785 205.414 114.412ZM211.699 113.505C210.233 113.505 208.934 114.412 208.901 116.214C208.845 118.039 210.154 119.181 211.935 119.148C212.617 119.148 213.345 118.968 213.972 118.689L213.815 117.782C213.177 118.062 212.528 118.151 211.856 118.118C210.871 118.118 210.099 117.535 210.099 116.55H214.084C214.442 114.759 213.591 113.505 211.699 113.505ZM211.688 114.446C212.461 114.446 213.132 114.871 213.099 115.688H210.121C210.289 114.837 210.882 114.446 211.688 114.446Z" fill="#2C2C2C"/>
<path d="M158.66 125.917H145.138V129.461H153.181L146.42 145H150.536L158.66 126.489V125.917ZM166.428 125.781L160.894 134.777C160.158 135.949 159.668 137.476 159.668 138.866C159.668 143.228 162.775 145.3 166.837 145.3C170.899 145.3 174.062 143.228 174.062 138.866C174.062 134.94 171.363 132.569 167.519 132.705C167.165 132.705 166.837 132.787 166.538 132.95L170.899 125.781H166.428ZM166.837 141.838C164.875 141.838 163.648 140.802 163.648 138.866C163.648 136.903 164.875 135.813 166.837 135.813C168.8 135.813 170 136.903 170 138.866C170 140.802 168.8 141.838 166.837 141.838ZM189.621 125.917H176.1V129.461H184.142L177.381 145H181.497L189.621 126.489V125.917Z" fill="#2C2C2C"/>
<path d="M140.863 45.7188H197.09V97.6861H140.863V45.7188Z" fill="#E7B92E"/>
<path d="M25 52.5341C25 48.7701 28.0514 45.7188 31.8154 45.7188H81.227V97.6861H31.8154C28.0514 97.6861 25 94.6348 25 90.8707V52.5341Z" fill="#D74025"/>
<path d="M82.9297 45.7188H139.157V97.6861H82.9297V45.7188Z" fill="#E5862E"/>
<path d="M198.793 45.7188H255.02V97.6861H198.793V45.7188Z" fill="#A9D161"/>
<path d="M256.723 45.7188H302.727C306.491 45.7188 309.542 48.7701 309.542 52.5341V90.8707C309.542 94.6348 306.491 97.6861 302.727 97.6861H256.723V45.7188Z" fill="#009900"/>
<path d="M41.6822 69.1444C41.6413 69.7033 41.3006 70.2485 40.9598 70.7256L37.5794 75.4691V75.9053H43.6996V74.1333H40.5918C41.8049 72.5657 42.2275 71.8569 42.5137 71.4616C44.4084 68.9399 43.3861 66.2138 40.6872 66.2138C38.8198 66.2138 37.702 67.3042 37.702 69.1717H39.4468C39.4468 68.2311 40.0874 67.9585 40.6327 67.9585C41.1915 67.9585 41.7231 68.3538 41.6822 69.1444ZM49.1375 66.2002C47.1611 66.2002 45.5663 67.4269 45.5663 69.4852V72.8111C45.5663 74.883 47.1611 76.0961 49.1375 76.0961C51.0867 76.0961 52.6815 74.883 52.6815 72.8111V69.4852C52.6815 67.4269 51.0867 66.2002 49.1375 66.2002ZM49.1375 74.3105C48.2651 74.3105 47.6245 73.8607 47.5291 73.0292C47.5018 72.7975 47.4882 72.5521 47.4882 72.2659V70.044C47.4882 69.7714 47.5018 69.5124 47.5291 69.2671C47.6245 68.4083 48.2651 67.9858 49.1375 67.9858C49.969 67.9858 50.6369 68.4083 50.7323 69.2671C50.7596 69.5124 50.7732 69.7714 50.7732 70.044V72.2659C50.7732 72.5521 50.7596 72.7975 50.7323 73.0292C50.6369 73.8607 49.969 74.3105 49.1375 74.3105ZM56.8572 75.9053H58.6974L63.3864 66.3774H61.5326L56.8572 75.9053ZM65.9353 73.7107C65.9353 70.4666 61.0419 70.4666 61.0419 73.7107C61.0419 76.9685 65.9353 76.9685 65.9353 73.7107ZM62.5549 73.7107C62.5549 72.2522 64.4087 72.2522 64.4087 73.7107C64.4087 75.1965 62.5549 75.1965 62.5549 73.7107ZM59.2154 68.5992C59.2154 65.3414 54.3219 65.3414 54.3219 68.5992C54.3219 71.8569 59.2154 71.8569 59.2154 68.5992ZM55.8485 68.5992C55.8485 67.1134 57.7023 67.1134 57.7023 68.5992C57.7023 70.0577 55.8485 70.0577 55.8485 68.5992Z" fill="white"/>
<path d="M97.9127 69.1444C97.8718 69.7033 97.531 70.2485 97.1903 70.7256L93.8098 75.4691V75.9053H99.93V74.1333H96.8222C98.0354 72.5657 98.4579 71.8569 98.7442 71.4616C100.639 68.9399 99.6165 66.2138 96.9176 66.2138C95.0502 66.2138 93.9325 67.3042 93.9325 69.1717H95.6772C95.6772 68.2311 96.3179 67.9585 96.8631 67.9585C97.422 67.9585 97.9536 68.3538 97.9127 69.1444ZM105.368 66.2002C103.392 66.2002 101.797 67.4269 101.797 69.4852V72.8111C101.797 74.883 103.392 76.0961 105.368 76.0961C107.317 76.0961 108.912 74.883 108.912 72.8111V69.4852C108.912 67.4269 107.317 66.2002 105.368 66.2002ZM105.368 74.3105C104.496 74.3105 103.855 73.8607 103.76 73.0292C103.732 72.7975 103.719 72.5521 103.719 72.2659V70.044C103.719 69.7714 103.732 69.5124 103.76 69.2671C103.855 68.4083 104.496 67.9858 105.368 67.9858C106.199 67.9858 106.867 68.4083 106.963 69.2671C106.99 69.5124 107.004 69.7714 107.004 70.044V72.2659C107.004 72.5521 106.99 72.7975 106.963 73.0292C106.867 73.8607 106.199 74.3105 105.368 74.3105ZM113.088 75.9053H114.928L119.617 66.3774H117.763L113.088 75.9053ZM122.166 73.7107C122.166 70.4666 117.272 70.4666 117.272 73.7107C117.272 76.9685 122.166 76.9685 122.166 73.7107ZM118.785 73.7107C118.785 72.2522 120.639 72.2522 120.639 73.7107C120.639 75.1965 118.785 75.1965 118.785 73.7107ZM115.446 68.5992C115.446 65.3414 110.552 65.3414 110.552 68.5992C110.552 71.8569 115.446 71.8569 115.446 68.5992ZM112.079 68.5992C112.079 67.1134 113.933 67.1134 113.933 68.5992C113.933 70.0577 112.079 70.0577 112.079 68.5992Z" fill="white"/>
<path d="M155.842 69.1444C155.801 69.7033 155.461 70.2485 155.12 70.7256L151.74 75.4691V75.9053H157.86V74.1333H154.752C155.965 72.5657 156.388 71.8569 156.674 71.4616C158.569 68.9399 157.546 66.2138 154.847 66.2138C152.98 66.2138 151.862 67.3042 151.862 69.1717H153.607C153.607 68.2311 154.248 67.9585 154.793 67.9585C155.352 67.9585 155.883 68.3538 155.842 69.1444ZM163.298 66.2002C161.321 66.2002 159.726 67.4269 159.726 69.4852V72.8111C159.726 74.883 161.321 76.0961 163.298 76.0961C165.247 76.0961 166.842 74.883 166.842 72.8111V69.4852C166.842 67.4269 165.247 66.2002 163.298 66.2002ZM163.298 74.3105C162.425 74.3105 161.785 73.8607 161.689 73.0292C161.662 72.7975 161.648 72.5521 161.648 72.2659V70.044C161.648 69.7714 161.662 69.5124 161.689 69.2671C161.785 68.4083 162.425 67.9858 163.298 67.9858C164.129 67.9858 164.797 68.4083 164.892 69.2671C164.92 69.5124 164.933 69.7714 164.933 70.044V72.2659C164.933 72.5521 164.92 72.7975 164.892 73.0292C164.797 73.8607 164.129 74.3105 163.298 74.3105ZM171.017 75.9053H172.858L177.547 66.3774H175.693L171.017 75.9053ZM180.095 73.7107C180.095 70.4666 175.202 70.4666 175.202 73.7107C175.202 76.9685 180.095 76.9685 180.095 73.7107ZM176.715 73.7107C176.715 72.2522 178.569 72.2522 178.569 73.7107C178.569 75.1965 176.715 75.1965 176.715 73.7107ZM173.376 68.5992C173.376 65.3414 168.482 65.3414 168.482 68.5992C168.482 71.8569 173.376 71.8569 173.376 68.5992ZM170.009 68.5992C170.009 67.1134 171.862 67.1134 171.862 68.5992C171.862 70.0577 170.009 70.0577 170.009 68.5992Z" fill="white"/>
<path d="M213.776 69.1444C213.735 69.7033 213.394 70.2485 213.054 70.7256L209.673 75.4691V75.9053H215.793V74.1333H212.686C213.899 72.5657 214.321 71.8569 214.607 71.4616C216.502 68.9399 215.48 66.2138 212.781 66.2138C210.914 66.2138 209.796 67.3042 209.796 69.1717H211.541C211.541 68.2311 212.181 67.9585 212.726 67.9585C213.285 67.9585 213.817 68.3538 213.776 69.1444ZM221.231 66.2002C219.255 66.2002 217.66 67.4269 217.66 69.4852V72.8111C217.66 74.883 219.255 76.0961 221.231 76.0961C223.18 76.0961 224.775 74.883 224.775 72.8111V69.4852C224.775 67.4269 223.18 66.2002 221.231 66.2002ZM221.231 74.3105C220.359 74.3105 219.718 73.8607 219.623 73.0292C219.596 72.7975 219.582 72.5521 219.582 72.2659V70.044C219.582 69.7714 219.596 69.5124 219.623 69.2671C219.718 68.4083 220.359 67.9858 221.231 67.9858C222.063 67.9858 222.731 68.4083 222.826 69.2671C222.853 69.5124 222.867 69.7714 222.867 70.044V72.2659C222.867 72.5521 222.853 72.7975 222.826 73.0292C222.731 73.8607 222.063 74.3105 221.231 74.3105ZM228.951 75.9053H230.791L235.48 66.3774H233.626L228.951 75.9053ZM238.029 73.7107C238.029 70.4666 233.136 70.4666 233.136 73.7107C233.136 76.9685 238.029 76.9685 238.029 73.7107ZM234.649 73.7107C234.649 72.2522 236.502 72.2522 236.502 73.7107C236.502 75.1965 234.649 75.1965 234.649 73.7107ZM231.309 68.5992C231.309 65.3414 226.416 65.3414 226.416 68.5992C226.416 71.8569 231.309 71.8569 231.309 68.5992ZM227.942 68.5992C227.942 67.1134 229.796 67.1134 229.796 68.5992C229.796 70.0577 227.942 70.0577 227.942 68.5992Z" fill="white"/>
<path d="M270.85 69.1444C270.809 69.7033 270.469 70.2485 270.128 70.7256L266.747 75.4691V75.9053H272.868V74.1333H269.76C270.973 72.5657 271.395 71.8569 271.682 71.4616C273.576 68.9399 272.554 66.2138 269.855 66.2138C267.988 66.2138 266.87 67.3042 266.87 69.1717H268.615C268.615 68.2311 269.255 67.9585 269.801 67.9585C270.359 67.9585 270.891 68.3538 270.85 69.1444ZM278.305 66.2002C276.329 66.2002 274.734 67.4269 274.734 69.4852V72.8111C274.734 74.883 276.329 76.0961 278.305 76.0961C280.255 76.0961 281.849 74.883 281.849 72.8111V69.4852C281.849 67.4269 280.255 66.2002 278.305 66.2002ZM278.305 74.3105C277.433 74.3105 276.792 73.8607 276.697 73.0292C276.67 72.7975 276.656 72.5521 276.656 72.2659V70.044C276.656 69.7714 276.67 69.5124 276.697 69.2671C276.792 68.4083 277.433 67.9858 278.305 67.9858C279.137 67.9858 279.805 68.4083 279.9 69.2671C279.928 69.5124 279.941 69.7714 279.941 70.044V72.2659C279.941 72.5521 279.928 72.7975 279.9 73.0292C279.805 73.8607 279.137 74.3105 278.305 74.3105ZM286.025 75.9053H287.865L292.554 66.3774H290.701L286.025 75.9053ZM295.103 73.7107C295.103 70.4666 290.21 70.4666 290.21 73.7107C290.21 76.9685 295.103 76.9685 295.103 73.7107ZM291.723 73.7107C291.723 72.2522 293.577 72.2522 293.577 73.7107C293.577 75.1965 291.723 75.1965 291.723 73.7107ZM288.383 68.5992C288.383 65.3414 283.49 65.3414 283.49 68.5992C283.49 71.8569 288.383 71.8569 288.383 68.5992ZM285.017 68.5992C285.017 67.1134 286.87 67.1134 286.87 68.5992C286.87 70.0577 285.017 70.0577 285.017 68.5992Z" fill="white"/>
<rect x="160.457" y="100.656" width="10.2231" height="10.2231" transform="rotate(-45 160.457 100.656)" fill="white"/>
<path d="M22.423 170.281C22.468 171.577 23.782 172.135 24.952 172.108C26.095 172.081 27.391 171.595 27.391 170.245C27.391 168.85 26.221 168.625 24.97 168.481C24.205 168.382 23.296 168.346 23.296 167.41C23.296 166.582 24.16 166.294 24.853 166.267C25.573 166.267 26.419 166.519 26.491 167.32H27.193C27.148 166.096 25.924 165.565 24.835 165.592C23.728 165.592 22.549 166.177 22.549 167.419C22.549 168.679 23.701 168.976 24.844 169.093C25.699 169.21 26.653 169.228 26.653 170.245C26.626 171.163 25.699 171.424 24.943 171.451C24.169 171.451 23.197 171.127 23.152 170.281H22.423ZM32.7054 168.985C32.4354 168.04 31.5804 167.563 30.6984 167.554C29.5644 167.545 28.3944 168.301 28.3944 169.813C28.3944 171.307 29.5464 172.072 30.6804 172.072C31.5894 172.072 32.4894 171.568 32.7504 170.542H32.0664C31.8324 171.154 31.2654 171.451 30.6894 171.451C29.9064 171.451 29.1054 170.884 29.1054 169.813C29.1054 168.733 29.9334 168.184 30.7254 168.184C31.2744 168.184 31.7964 168.445 32.0304 168.985H32.7054ZM38.253 169.822C38.253 166.807 33.681 166.807 33.681 169.822C33.681 172.837 38.253 172.819 38.253 169.822ZM34.392 169.822C34.392 167.617 37.551 167.617 37.551 169.822C37.551 172.036 34.392 172.036 34.392 169.822ZM40.3019 168.238C40.2749 167.572 39.7979 167.5 39.1229 167.617L39.1319 168.085C39.6449 168.04 39.6539 168.283 39.6539 168.679V172H40.3469V169.3C40.3469 168.616 40.9229 168.148 41.5439 168.148C41.8769 168.148 42.1829 168.256 42.4619 168.436L42.6329 167.842C42.3359 167.626 41.9939 167.518 41.6159 167.518C41.0399 167.518 40.5449 167.707 40.3019 168.238ZM45.3959 167.563C44.2079 167.563 43.2179 168.346 43.1729 169.714C43.1279 171.19 44.1449 172.099 45.5849 172.099C46.1159 172.099 46.6649 171.973 47.1779 171.73L47.0699 171.199C46.5659 171.406 46.0979 171.514 45.6029 171.514C44.6219 171.514 43.8299 170.902 43.8749 169.903H47.3219C47.5649 168.472 46.8719 167.572 45.3959 167.563ZM45.3959 168.121C46.1699 168.121 46.7729 168.544 46.7279 169.363H43.9019C44.0189 168.58 44.6039 168.121 45.3959 168.121ZM54.4364 169.588C55.3184 169.372 55.9394 168.688 55.9394 167.716C55.9394 166.573 55.0844 165.691 53.7884 165.691H51.2774V172H52.0334V169.687H53.6804L55.4264 172H56.2184V171.892L54.4364 169.588ZM52.0244 169.066V166.357H53.7884C54.6074 166.357 55.2104 166.897 55.2104 167.707C55.2104 168.526 54.5894 169.066 53.7884 169.066H52.0244ZM60.2145 171.217C60.2145 172.009 60.5565 172.144 61.2765 172.027L61.2675 171.568C60.7365 171.64 60.7635 171.361 60.7635 170.884V169.075C60.7905 167.941 59.8455 167.563 58.8645 167.563C58.2885 167.563 57.7395 167.671 57.3165 167.887L57.4335 168.445C57.8025 168.229 58.2615 168.13 58.7565 168.13C59.3505 168.13 60.1245 168.328 60.1245 169.057V169.588C59.6925 169.345 59.1255 169.228 58.6305 169.228C57.7305 169.228 56.9475 169.741 56.9745 170.731C57.0015 171.604 57.7035 172.072 58.5045 172.072C59.1615 172.072 59.8995 171.82 60.2145 171.217ZM60.1155 170.533C59.9715 171.181 59.1975 171.469 58.6305 171.469C58.1445 171.469 57.6945 171.253 57.6675 170.704C57.6405 170.083 58.1715 169.768 58.7475 169.768C59.1885 169.768 59.7195 169.894 60.1155 170.119V170.533ZM66.442 172V169.426C66.442 168.364 65.848 167.572 64.705 167.572C64.093 167.572 63.562 167.725 63.175 168.31C63.175 167.473 62.509 167.581 62.005 167.653L62.014 168.211C62.473 168.166 62.518 168.319 62.518 168.904V172H63.22V169.399C63.22 168.67 63.778 168.157 64.516 168.157C65.227 168.157 65.731 168.643 65.731 169.426V172H66.442ZM71.0919 172.36C71.0919 173.413 70.4709 173.8 69.7239 173.809C69.1839 173.818 68.5809 173.629 68.0859 173.359L67.9689 173.917C68.5269 174.232 69.1569 174.403 69.7329 174.403C70.8399 174.403 71.7759 173.791 71.7759 172.306V167.995C71.2359 167.752 70.6599 167.599 70.0479 167.599C68.7069 167.599 67.6629 168.328 67.6629 169.849C67.6629 171.325 68.5809 172.162 69.7059 172.126C70.1469 172.117 70.6239 171.973 71.0919 171.676V172.36ZM71.0829 171.064C70.6689 171.37 70.2279 171.523 69.8229 171.523C69.0219 171.532 68.3649 170.956 68.3649 169.84C68.3649 168.733 69.1299 168.193 70.0299 168.193C70.3809 168.193 70.7319 168.265 71.0829 168.4V171.064ZM75.2425 167.563C74.0545 167.563 73.0645 168.346 73.0195 169.714C72.9745 171.19 73.9915 172.099 75.4315 172.099C75.9625 172.099 76.5115 171.973 77.0245 171.73L76.9165 171.199C76.4125 171.406 75.9445 171.514 75.4495 171.514C74.4685 171.514 73.6765 170.902 73.7215 169.903H77.1685C77.4115 168.472 76.7185 167.572 75.2425 167.563ZM75.2425 168.121C76.0165 168.121 76.6195 168.544 76.5745 169.363H73.7485C73.8655 168.58 74.4505 168.121 75.2425 168.121Z" fill="#2C2C2C"/>
<g filter="url(#filter0_f_9465_23209)">
<path d="M113.942 170.979C114.06 172.333 115.081 173.129 116.414 173.129C118.027 173.129 119.016 172.086 119.016 170.646C119.016 169.431 118.081 168.399 116.834 168.431L119.005 165.615V165.475H114.275V166.238H117.618L115.554 168.904V169.108C116.823 168.775 118.167 169.313 118.167 170.646C118.156 171.721 117.446 172.344 116.404 172.344C115.501 172.344 114.845 171.893 114.727 170.979H113.942ZM123.382 165.367C121.823 165.367 120.598 166.346 120.598 167.958V170.538C120.598 172.161 121.823 173.129 123.382 173.129C124.919 173.129 126.145 172.161 126.145 170.538V167.958C126.145 166.346 124.919 165.367 123.382 165.367ZM123.382 172.344C122.49 172.344 121.791 171.903 121.565 171.129C121.49 170.904 121.447 170.635 121.447 170.323V168.173C121.447 167.861 121.49 167.593 121.565 167.367C121.791 166.593 122.49 166.141 123.382 166.141C124.242 166.141 124.962 166.593 125.188 167.367C125.263 167.593 125.306 167.861 125.306 168.173V170.323C125.306 170.635 125.263 170.904 125.188 171.129C124.962 171.903 124.242 172.344 123.382 172.344ZM130.673 165.367C129.114 165.367 127.889 166.346 127.889 167.958V170.538C127.889 172.161 129.114 173.129 130.673 173.129C132.21 173.129 133.436 172.161 133.436 170.538V167.958C133.436 166.346 132.21 165.367 130.673 165.367ZM130.673 172.344C129.781 172.344 129.082 171.903 128.856 171.129C128.781 170.904 128.738 170.635 128.738 170.323V168.173C128.738 167.861 128.781 167.593 128.856 167.367C129.082 166.593 129.781 166.141 130.673 166.141C131.533 166.141 132.253 166.593 132.479 167.367C132.554 167.593 132.597 167.861 132.597 168.173V170.323C132.597 170.635 132.554 170.904 132.479 171.129C132.253 171.903 131.533 172.344 130.673 172.344Z" fill="#707070"/>
</g>
<rect x="98.0586" y="163.304" width="10.7583" height="10.75" fill="#E15825"/>
<g filter="url(#filter1_f_9465_23209)">
<path d="M165.234 165.475H160.214V166.27H164.02L160.859 173H161.773L165.234 165.604V165.475ZM168.444 166.141C170.154 166.141 170.1 167.808 169.186 168.926L166.079 172.806V173H170.82V172.204H167.541L169.992 169.184C170.541 168.496 170.713 167.743 170.637 167.098C170.551 166.141 169.799 165.367 168.466 165.367C167.015 165.367 166.294 166.098 166.219 167.442H166.972C167.047 166.539 167.541 166.141 168.444 166.141ZM172.142 170.979C172.261 172.333 173.282 173.129 174.615 173.129C176.227 173.129 177.216 172.086 177.216 170.646C177.216 169.431 176.281 168.399 175.034 168.431L177.206 165.615V165.475H172.476V166.238H175.819L173.755 168.904V169.108C175.023 168.775 176.367 169.313 176.367 170.646C176.356 171.721 175.647 172.344 174.604 172.344C173.701 172.344 173.045 171.893 172.927 170.979H172.142Z" fill="#707070"/>
</g>
<rect x="144.449" y="163.304" width="10.7583" height="10.75" fill="#E5862E"/>
<g filter="url(#filter2_f_9465_23209)">
<path d="M209.625 165.475H204.605V166.27H208.41L205.25 173H206.164L209.625 165.604V165.475ZM214.46 171.42H215.234V170.689H214.46V165.582H213.579L209.763 171.033V171.42H213.643V173.108H214.46V171.42ZM213.729 166.593L213.697 168.829V170.721H210.838L213.719 166.593H213.729ZM220.522 168.797C221.124 168.506 221.576 168.001 221.576 167.27C221.576 166.131 220.597 165.367 219.297 165.367C217.996 165.367 217.039 166.141 217.039 167.281C217.05 168.012 217.491 168.517 218.06 168.786C217.211 169.098 216.555 169.764 216.555 170.807C216.555 172.28 217.738 173.108 219.297 173.108C220.866 173.108 222.038 172.172 222.038 170.807C222.027 169.743 221.382 169.13 220.522 168.797ZM219.297 168.506C218.533 168.506 217.835 168.076 217.835 167.302C217.835 166.528 218.555 166.088 219.297 166.088C220.071 166.088 220.769 166.528 220.769 167.292C220.769 168.066 220.06 168.506 219.297 168.506ZM219.297 172.355C218.329 172.355 217.437 171.774 217.437 170.785C217.437 169.786 218.308 169.194 219.297 169.194C220.275 169.194 221.167 169.775 221.167 170.775C221.167 171.774 220.275 172.355 219.297 172.355Z" fill="#707070"/>
</g>
<rect x="188.84" y="164.071" width="10.7583" height="10.75" fill="#E7B92E"/>
<g filter="url(#filter3_f_9465_23209)">
<path d="M254.012 165.475H248.992V166.27H252.797L249.637 173H250.55L254.012 165.604V165.475ZM257.284 165.443L254.887 169.108C254.575 169.571 254.425 170.087 254.425 170.635C254.425 172.247 255.65 173.097 257.155 173.097C258.66 173.097 259.907 172.247 259.907 170.635C259.907 169.087 258.746 168.195 257.284 168.227C256.951 168.227 256.618 168.302 256.327 168.474L258.273 165.443H257.284ZM257.155 172.323C256.123 172.323 255.306 171.71 255.306 170.635C255.306 169.549 256.112 168.936 257.144 168.936C258.198 168.936 259.015 169.549 259.015 170.635C259.015 171.71 258.198 172.323 257.155 172.323ZM262.196 166.281H265.786V165.475H261.379V169.108C261.884 168.947 262.561 168.872 263.249 168.872C264.314 168.872 265.346 169.248 265.346 170.635C265.346 171.914 264.389 172.323 263.626 172.323C262.766 172.323 262.121 171.871 262.024 171.043H261.175C261.293 172.409 262.336 173.118 263.636 173.118C265.206 173.118 266.227 172.129 266.227 170.613C266.281 168.764 264.851 168.087 263.346 168.087C262.948 168.087 262.572 168.13 262.196 168.227V166.281Z" fill="#707070"/>
</g>
<rect x="233.227" y="163.304" width="10.7583" height="10.75" fill="#A9D161"/>
<g filter="url(#filter4_f_9465_23209)">
<path d="M298.402 165.475H293.382V166.27H297.188L294.027 173H294.941L298.402 165.604V165.475ZM304.171 165.475H299.151V166.27H302.956L299.796 173H300.709L304.171 165.604V165.475ZM309.069 168.797C309.671 168.506 310.122 168.001 310.122 167.27C310.122 166.131 309.144 165.367 307.843 165.367C306.542 165.367 305.586 166.141 305.586 167.281C305.596 168.012 306.037 168.517 306.607 168.786C305.758 169.098 305.102 169.764 305.102 170.807C305.102 172.28 306.284 173.108 307.843 173.108C309.413 173.108 310.584 172.172 310.584 170.807C310.574 169.743 309.929 169.13 309.069 168.797ZM307.843 168.506C307.08 168.506 306.381 168.076 306.381 167.302C306.381 166.528 307.101 166.088 307.843 166.088C308.617 166.088 309.316 166.528 309.316 167.292C309.316 168.066 308.606 168.506 307.843 168.506ZM307.843 172.355C306.876 172.355 305.983 171.774 305.983 170.785C305.983 169.786 306.854 169.194 307.843 169.194C308.821 169.194 309.714 169.775 309.714 170.775C309.714 171.774 308.821 172.355 307.843 172.355Z" fill="#707070"/>
</g>
<rect x="277.617" y="164.839" width="10.7583" height="10.75" fill="#009900"/>
<defs>
<filter id="filter0_f_9465_23209" x="106.263" y="157.689" width="34.8513" height="23.1184" filterUnits="userSpaceOnUse" color-interpolation-filters="sRGB">
<feFlood flood-opacity="0" result="BackgroundImageFix"/>
<feBlend mode="normal" in="SourceGraphic" in2="BackgroundImageFix" result="shape"/>
<feGaussianBlur stdDeviation="3.83929" result="effect1_foregroundBlur_9465_23209"/>
</filter>
<filter id="filter1_f_9465_23209" x="152.535" y="157.689" width="32.3591" height="23.1184" filterUnits="userSpaceOnUse" color-interpolation-filters="sRGB">
<feFlood flood-opacity="0" result="BackgroundImageFix"/>
<feBlend mode="normal" in="SourceGraphic" in2="BackgroundImageFix" result="shape"/>
<feGaussianBlur stdDeviation="3.83929" result="effect1_foregroundBlur_9465_23209"/>
</filter>
<filter id="filter2_f_9465_23209" x="196.926" y="157.689" width="32.7907" height="23.0969" filterUnits="userSpaceOnUse" color-interpolation-filters="sRGB">
<feFlood flood-opacity="0" result="BackgroundImageFix"/>
<feBlend mode="normal" in="SourceGraphic" in2="BackgroundImageFix" result="shape"/>
<feGaussianBlur stdDeviation="3.83929" result="effect1_foregroundBlur_9465_23209"/>
</filter>
<filter id="filter3_f_9465_23209" x="241.313" y="157.764" width="32.6472" height="23.0324" filterUnits="userSpaceOnUse" color-interpolation-filters="sRGB">
<feFlood flood-opacity="0" result="BackgroundImageFix"/>
<feBlend mode="normal" in="SourceGraphic" in2="BackgroundImageFix" result="shape"/>
<feGaussianBlur stdDeviation="3.83929" result="effect1_foregroundBlur_9465_23209"/>
</filter>
<filter id="filter4_f_9465_23209" x="285.703" y="157.689" width="32.5593" height="23.0969" filterUnits="userSpaceOnUse" color-interpolation-filters="sRGB">
<feFlood flood-opacity="0" result="BackgroundImageFix"/>
<feBlend mode="normal" in="SourceGraphic" in2="BackgroundImageFix" result="shape"/>
<feGaussianBlur stdDeviation="3.83929" result="effect1_foregroundBlur_9465_23209"/>
</filter>
</defs>
</svg>
